<?xml version="1.0" standalone="no"?>
<!DOCTYPE svg PUBLIC "-//W3C//DTD SVG 1.1//EN" "http://www.w3.org/Graphics/SVG/1.1/DTD/svg11.dtd" >
<svg xmlns="http://www.w3.org/2000/svg">
<metadata></metadata>
<defs>
<font id="pf_beausans_prosemibold" horiz-adv-x="1263" >
<font-face units-per-em="2048" ascent="1536" descent="-512" />
<missing-glyph horiz-adv-x="573" />
<glyph horiz-adv-x="2048" />
<glyph horiz-adv-x="2048" />
<glyph unicode="&#xd;" horiz-adv-x="2048" />
<glyph unicode=" "  horiz-adv-x="573" />
<glyph unicode="&#x09;" horiz-adv-x="573" />
<glyph unicode="&#xa0;" horiz-adv-x="573" />
<glyph unicode="!" horiz-adv-x="583" d="M129 143q0 66 48 114t116 48q70 0 117 -47t47 -115t-47.5 -114.5t-116.5 -46.5q-70 0 -117 46t-47 115zM162 1395q-2 16 7 27.5t32 11.5h180q27 0 35 -12.5t6 -26.5l-47 -908q0 -23 -10.5 -29.5t-36.5 -6.5h-78q-41 0 -43 32z" />
<glyph unicode="&#x22;" horiz-adv-x="845" d="M119 1399q-4 16 6 27.5t33 11.5h184q29 0 36 -12.5t5 -26.5l-51 -502q-4 -23 -13.5 -30t-35.5 -7h-70q-25 0 -34 7t-11 26zM461 1399q-2 16 8 27.5t33 11.5h184q29 0 36 -12.5t5 -26.5l-51 -502q-4 -23 -13.5 -30t-35.5 -7h-72q-41 0 -43 33z" />
<glyph unicode="#" d="M94 315l17 84q4 16 9 23.5t25 7.5h168l70 338h-172q-20 0 -24.5 8t-2.5 25l19 82q4 14 10 22t27 8h174l53 258q4 16 11 21.5t24 5.5h94q20 0 28.5 -5t4.5 -24l-54 -256h271l53 258q4 16 10 21.5t25 5.5h94q18 0 26.5 -5t4.5 -24l-53 -256h168q18 0 23 -8t3 -24l-18 -80 q-4 -18 -11.5 -25.5t-23.5 -7.5h-170l-70 -338h170q31 0 25 -33l-19 -82q-6 -31 -32 -30h-172l-54 -258q-4 -16 -9 -21.5t-25 -5.5h-99q-16 0 -24.5 5t-3.5 24l51 256h-269l-53 -258q-4 -16 -9 -21.5t-24 -5.5h-98q-16 0 -25.5 5t-5.5 24l54 256h-168q-31 0 -23 30zM475 430 h270l70 338h-268z" />
<glyph unicode="$" d="M133 141q2 4 9.5 23.5t16.5 43t17 43t10 25.5q12 27 41 17q59 -27 126 -47.5t134 -32.5v446q-74 33 -131 68t-97 78t-61.5 96t-21.5 121q-2 135 76 233.5t235 130.5v173q0 23 9.5 25.5t25.5 2.5h37q20 0 28.5 -3t8.5 -25v-1762q0 -23 -8 -25.5t-29 -2.5h-37 q-16 0 -25.5 3t-9.5 25v191q-90 10 -178 35.5t-166 70.5q-25 12 -10 47zM406 1034q0 -80 81 -135v260q-43 -23 -62 -55.5t-19 -69.5zM666 -203v1762q0 23 9 25.5t27 2.5h33q20 0 28.5 -3t8.5 -25v-168q66 -8 131.5 -25.5t124.5 -46.5q25 -10 14 -41l-49 -137 q-6 -18 -13 -20.5t-22 1.5q-98 31 -186 47v-395q68 -31 131.5 -65.5t112.5 -81.5t77.5 -107.5t28.5 -142.5q0 -86 -26.5 -152.5t-72.5 -114t-110.5 -78t-140.5 -42.5v-193q0 -23 -8 -25.5t-29 -2.5h-33q-18 0 -27 3t-9 25zM772 211q59 20 92 62.5t33 99.5q0 55 -31.5 95 t-93.5 75v-332z" />
<glyph unicode="%" horiz-adv-x="1925" d="M90 961q0 96 23.5 176t69.5 136t117 87t167 31q98 0 169 -31t116 -86t66.5 -134t21.5 -177q0 -96 -22.5 -174t-69 -135.5t-118 -88t-167.5 -30.5q-188 0 -280.5 115.5t-92.5 310.5zM287 963q0 -53 8 -102.5t29.5 -87.5t55.5 -60.5t87 -22.5q51 0 85 22.5t54.5 60.5 t29.5 86.5t9 101.5t-9 102t-29.5 87t-56.5 60.5t-87 22.5t-85 -22.5t-54.5 -59.5t-28.5 -86t-8 -102zM463 -44q-6 9 4 26l842 1417q10 18 17 25.5t28 7.5h96q12 0 20.5 -8.5t-2.5 -28.5l-839 -1413q-10 -18 -22.5 -26.5t-35.5 -8.5h-84q-18 0 -24 9zM1085 414q0 96 24 176 t70 136t116.5 87t166.5 31q98 0 169 -31t116 -86t66.5 -134t21.5 -177q0 -96 -22.5 -174t-68.5 -135.5t-118 -88t-168 -30.5q-188 0 -280.5 115.5t-92.5 310.5zM1282 416q0 -53 8 -102.5t29.5 -87.5t55.5 -60.5t87 -22.5q51 0 85 22.5t54.5 60.5t29.5 86.5t9 101.5t-9 102 t-29.5 87t-56.5 60.5t-87 22.5t-85 -22.5t-54.5 -59.5t-28.5 -86t-8 -102z" />
<glyph unicode="&#x26;" horiz-adv-x="1536" d="M139 342q0 76 24.5 143.5t65.5 127t97.5 108.5t117.5 86q-55 66 -98 149.5t-43 163.5q0 78 28.5 140.5t79 106.5t117 67.5t140.5 23.5q76 0 140 -22.5t111.5 -62.5t75 -96t27.5 -126q0 -74 -23.5 -133.5t-61.5 -108.5t-85 -87t-96 -68q51 -68 92 -116t82 -95 q59 106 145 188t199 111q27 8 50.5 11t51.5 5q20 0 27 -18l20 -140q6 -25 -26 -28q-70 -12 -120 -41t-89 -68t-66.5 -87t-52.5 -99q29 -35 79 -91.5t97 -111.5q55 -66 119 -135q8 -8 6 -23.5t-22 -15.5h-183q-23 0 -38 5t-29 22q-39 41 -70 75q-27 29 -49.5 55.5t-26.5 30.5 q-74 -86 -177 -149.5t-247 -63.5q-180 0 -284.5 97.5t-104.5 269.5zM367 360q0 -90 47 -134t137 -44q37 0 75 14.5t72.5 38t65.5 54t53 65.5q-63 76 -122.5 150t-119.5 147q-41 -27 -78.5 -57.5t-66.5 -66t-46 -77.5t-17 -90zM528 1126q0 -57 35 -117.5t74 -105.5 q27 16 55.5 39t53 50.5t40 61t15.5 74.5q0 49 -33 93.5t-98 44.5q-66 0 -104 -39t-38 -101z" />
<glyph unicode="'" horiz-adv-x="501" d="M119 1399q-2 16 7 27.5t32 11.5h184q29 0 36 -12.5t5 -26.5l-51 -502q-4 -23 -13.5 -30t-35.5 -7h-70q-25 0 -34 7t-11 26z" />
<glyph unicode="(" horiz-adv-x="647" d="M76 655q0 133 30.5 250t84 219.5t122 191.5t146.5 167q14 14 23.5 14t23.5 -10l86 -60q20 -14 4 -32q-131 -160 -198.5 -334t-67.5 -393q0 -117 17.5 -217.5t51 -188.5t84 -168.5t113.5 -156.5q16 -20 -2 -37l-88 -62q-14 -12 -23.5 -9t-21.5 15q-78 78 -147.5 165 t-123 187.5t-84 214t-30.5 244.5z" />
<glyph unicode=")" horiz-adv-x="659" d="M74 1410q0 7 12 15l86 62q16 12 25.5 11t21.5 -13q76 -78 145.5 -167t123 -190.5t84 -216t30.5 -245.5q0 -133 -30.5 -249t-83 -217.5t-122 -189.5t-147.5 -164q-12 -14 -21.5 -16t-25.5 8l-86 60q-20 13 -4 36q131 160 198.5 332t67.5 391q0 233 -69.5 407.5 t-196.5 328.5q-8 10 -8 17z" />
<glyph unicode="*" horiz-adv-x="1009" d="M144.5 1078q-5.5 7 0.5 30l31 98q8 35 45 19l228 -97l-25 252q-4 29 33 29h108q20 0 25.5 -6t3.5 -23l-23 -254l226 99q23 10 32 4t13 -23l32 -102q12 -35 -18 -39l-244 -61l162 -187q16 -16 13 -27.5t-19 -21.5l-82 -61q-20 -16 -29.5 -14.5t-19.5 22.5q-4 6 -22.5 38.5 t-42 69.5t-43 69t-21.5 38l-129 -219q-10 -20 -20.5 -20.5t-24.5 9.5q-4 2 -16.5 12.5t-28 23t-28.5 21.5t-15 13q-16 10 -18.5 19.5t12.5 25.5l161 191l-233 59q-18 6 -23.5 13z" />
<glyph unicode="+" d="M123 637v135q0 23 6 32t29 9h360v371q0 23 9.5 29t29.5 6h152q23 0 31 -6.5t8 -28.5v-371h358q23 0 29 -9t6 -32v-135q0 -23 -6.5 -31t-28.5 -8h-358v-373q0 -23 -8.5 -29t-30.5 -6h-152q-20 0 -29.5 6.5t-9.5 28.5v373h-360q-23 0 -29 8t-6 31z" />
<glyph unicode="," horiz-adv-x="538" d="M125 -229l29 505q2 16 10 28.5t31 12.5h213q27 0 35 -12t3 -29l-149 -501q-6 -23 -13.5 -30t-29.5 -7h-86q-45 0 -43 33z" />
<glyph unicode="-" horiz-adv-x="768" d="M102 512v168q0 23 6.5 31t28.5 8h494q23 0 29 -8.5t6 -30.5v-168q0 -20 -6.5 -29.5t-28.5 -9.5h-494q-23 0 -29 9.5t-6 29.5z" />
<glyph unicode="." horiz-adv-x="581" d="M119 145q0 37 13 68t37 54.5t55.5 36.5t66.5 13q76 0 125 -49t49 -123q0 -72 -49 -121t-125 -49q-35 0 -66.5 13.5t-55.5 36t-37 53.5t-13 67z" />
<glyph unicode="/" horiz-adv-x="919" d="M31 -162l643 1723q10 33 49 32h147q14 0 24.5 -7t2.5 -27l-641 -1723q-10 -33 -53 -33h-142q-18 0 -27 8.5t-3 26.5z" />
<glyph unicode="0" d="M72 686q0 160 34.5 292t104.5 225t175.5 144.5t246.5 51.5q147 0 253.5 -50.5t174 -143.5t99.5 -224t32 -291t-34 -291t-102.5 -224t-175 -145.5t-251.5 -52.5q-141 0 -247 50.5t-174.5 143.5t-102 224t-33.5 291zM315 690q0 -100 15.5 -192t51.5 -163t97.5 -114 t153.5 -43q90 0 151.5 42t98.5 112.5t52 163t15 190.5q0 100 -16 193.5t-53 164t-98.5 112.5t-153.5 42q-90 0 -150.5 -42t-96.5 -111.5t-51.5 -161.5t-15.5 -193z" />
<glyph unicode="1" d="M256 39v127q0 23 6 31t29 8h231v944l-227 -37q-23 -4 -29 3t-6 26v116q0 18 6 28.5t29 19.5l321 90q55 16 99.5 0.5t44.5 -76.5v-1114h244q23 0 28.5 -8.5t5.5 -30.5v-127q0 -23 -6 -31t-28 -8h-713q-23 0 -29 8t-6 31z" />
<glyph unicode="2" d="M125 170q0 68 46 158t136 182q84 86 172 148.5t152 101.5q63 39 106 70.5t68.5 61.5t36 59.5t10.5 64.5q0 74 -59.5 121t-182.5 47q-78 0 -158.5 -27t-154.5 -80q-16 -10 -29.5 -11t-23.5 15l-80 113q-18 29 8 49q98 76 215 116t240 40q96 0 181 -22.5t149.5 -68.5 t102.5 -116t38 -164q0 -76 -23.5 -137.5t-67.5 -113.5t-106.5 -98t-138.5 -89q-57 -33 -114.5 -74t-108 -90t-90 -104.5t-62.5 -116.5h676q23 0 29 -8.5t6 -30.5v-127q0 -23 -6.5 -31t-28.5 -8h-768q-92 0 -131 36t-39 134z" />
<glyph unicode="3" d="M102 162l76 119q20 33 60 8q76 -53 158.5 -76t162.5 -23q147 0 218 67t71 177q0 37 -15.5 73t-47 63.5t-82 44t-117.5 16.5h-58q-35 0 -49 11t-14 50v68q0 39 12 53t41 14h55q117 0 178.5 51.5t61.5 137.5q0 45 -20.5 77.5t-53 53t-74.5 30t-85 9.5q-82 0 -166 -24.5 t-148 -69.5q-39 -25 -59 8l-70 108q-10 14 -10 24.5t14 20.5q43 37 98.5 65t116 46t123 27.5t121.5 9.5q92 0 175 -21.5t145.5 -65.5t99.5 -110.5t37 -156.5q0 -106 -60.5 -191.5t-156.5 -120.5v-10q119 -23 187.5 -111t68.5 -206q0 -94 -37 -173t-104.5 -136.5t-163 -89.5 t-211.5 -32q-131 0 -253 30t-221 110q-20 18 -4 45z" />
<glyph unicode="4" d="M61 397v35q0 37 10.5 71t37.5 68l571 740q25 33 58.5 63.5t88.5 30.5h78q63 0 88 -26.5t25 -92.5v-797h137q23 0 31 -7t8 -29v-123q0 -23 -8 -30t-31 -7h-137v-258q0 -23 -9.5 -29t-31.5 -6h-160q-20 0 -28.5 6t-8.5 29v256h-602q-45 0 -81 19.5t-36 86.5zM319 498l5 -9 h454v594l-6 7z" />
<glyph unicode="5" d="M104 160l82 125q20 31 62 4q76 -51 163 -75t179 -24q150 0 233.5 70t83.5 189q0 59 -21.5 101t-57 69.5t-83 41t-98.5 13.5q-53 0 -92 -6t-74 -16.5t-67.5 -25t-71.5 -30.5q-51 -20 -102 -2l-47 16q-35 12 -50.5 36t-11.5 71l51 520q8 72 47 105.5t93 33.5h694 q25 0 32 -8t7 -33v-127q0 -23 -8.5 -32t-30.5 -9h-610l-37 -338q74 31 152.5 40.5t150.5 9.5q100 0 188 -30t151.5 -84t100.5 -132t37 -174q0 -115 -40 -205t-111.5 -152.5t-172 -95.5t-221.5 -33q-131 0 -260 29t-231 115q-23 20 -9 43z" />
<glyph unicode="6" d="M88 623q0 164 38 307t119 248.5t209 166t308 60.5q59 0 131 -8t125 -31q16 -4 23.5 -13.5t-3.5 -33.5l-39 -131q-6 -18 -17 -21.5t-32 2.5q-35 10 -87 18.5t-99 8.5q-180 0 -284.5 -101.5t-131.5 -269.5q66 23 161 36t173 13q102 0 194.5 -24.5t161 -76.5t109.5 -133 t41 -194q0 -121 -44 -210t-118 -146t-169 -85t-198 -28q-281 0 -426 172.5t-145 473.5zM330 557q0 -84 24.5 -152.5t67.5 -117.5t104.5 -76t135.5 -27q129 0 205.5 63.5t76.5 184.5q0 104 -65.5 171t-200.5 67q-90 0 -172 -11.5t-174 -37.5q-2 -27 -2 -39.5v-24.5z" />
<glyph unicode="7" d="M100 1210v125q0 25 7.5 34t29.5 9h871q43 0 72.5 -19.5t29.5 -68.5v-57q0 -33 -8 -61.5t-25 -59.5l-581 -1075q-12 -23 -24.5 -30t-41.5 -7h-176q-18 0 -27.5 14.5t0.5 34.5l607 1120h-697q-23 0 -30 9.5t-7 31.5z" />
<glyph unicode="8" d="M100 391q0 57 18.5 111.5t50.5 100.5t77 81t98 53v6q-53 20 -89 53t-58.5 70t-32.5 76t-10 70q0 92 36.5 165.5t101 124t151.5 77t186 26.5q109 0 195.5 -27.5t148 -78t94.5 -119t33 -150.5q0 -31 -10.5 -71.5t-34 -80.5t-59 -76t-87.5 -59v-6q63 -18 109.5 -54t76 -82 t44 -99t14.5 -107q0 -78 -33 -152.5t-98.5 -134t-163.5 -95.5t-231 -36q-131 0 -229.5 31t-165 86.5t-99.5 131t-33 165.5zM346 403q0 -43 14.5 -82.5t47 -71.5t87 -51.5t132.5 -19.5q80 0 134 21.5t86 54.5t46 74t14 82q0 55 -21.5 97t-60.5 71.5t-90 44t-108 14.5 q-55 0 -106.5 -16.5t-90.5 -46t-61.5 -72.5t-22.5 -99zM391 995q0 -78 67.5 -127t166.5 -49q47 0 90 14.5t75.5 39t52 57t19.5 71.5q0 84 -58.5 140.5t-178.5 56.5q-59 0 -103.5 -16.5t-73 -45t-43 -65.5t-14.5 -76z" />
<glyph unicode="9" d="M74 936q0 121 44 210t117.5 146.5t169 85t197.5 27.5q139 0 245.5 -44t179.5 -128t110 -204t37 -269q0 -164 -38 -307.5t-120 -249t-210 -166t-308 -60.5q-57 0 -129 8.5t-125 30.5q-16 6 -23.5 14.5t0.5 32.5l41 132q6 35 45 22q29 -10 85.5 -20.5t103.5 -10.5 q180 0 284.5 101.5t132.5 269.5q-66 -23 -153.5 -36t-165.5 -13q-102 0 -196.5 24.5t-166 77t-114.5 133t-43 193.5zM317 950q0 -104 71 -170.5t194 -66.5q92 0 173 11t173 38q4 27 4 40v25q0 82 -26.5 151t-73 118t-105.5 76.5t-127 27.5q-55 0 -106.5 -16.5t-90 -48 t-62.5 -79t-24 -106.5z" />
<glyph unicode=":" horiz-adv-x="579" d="M119 150q0 35 13 65.5t37 54t54.5 36.5t67.5 13q74 0 123 -47.5t49 -119.5t-50.5 -121t-121.5 -49q-72 0 -122 48t-50 120zM119 918q0 35 13 65.5t37 54t54.5 36.5t67.5 13q74 0 123 -48.5t49 -120.5q0 -35 -13.5 -67t-37 -54.5t-54 -35.5t-67.5 -13q-72 0 -122 49 t-50 121z" />
<glyph unicode=";" horiz-adv-x="569" d="M133 -227l31 503q2 16 10 28.5t31 12.5h211q29 0 36 -13t3 -28l-148 -499q-8 -23 -15 -31t-30 -8h-84q-47 0 -45 35zM139 918q0 72 49.5 120.5t122.5 48.5q72 0 122 -48.5t50 -120.5q0 -35 -13 -67t-36.5 -54.5t-54.5 -35.5t-68 -13q-74 0 -123 49t-49 121z" />
<glyph unicode="&#x3c;" d="M123 664v69q0 35 15.5 49.5t45.5 28.5l916 424q25 10 32 1t7 -30v-131q0 -23 -6.5 -37t-28.5 -24l-678 -305l670 -297q29 -16 36 -27.5t7 -40.5v-139q0 -16 -7.5 -25.5t-29.5 0.5l-918 420q-29 14 -43 27.5t-18 36.5z" />
<glyph unicode="=" d="M164 440v131q0 20 5 28.5t28 8.5h870q23 0 29 -8t6 -31v-127q0 -23 -6 -31t-29 -8h-868q-23 0 -29 8.5t-6 28.5zM164 829v129q0 23 6 31t29 8h866q23 0 29 -8t6 -31v-129q0 -23 -6.5 -30.5t-28.5 -7.5h-866q-23 0 -29 8t-6 30z" />
<glyph unicode="&#x3e;" d="M125 205v139q0 29 7 40t36 28l670 297l-678 305q-23 10 -29 24.5t-6 36.5v131q0 20 7 29.5t32 -0.5l915 -424q31 -14 46.5 -28.5t15.5 -49.5v-69q-4 -23 -18.5 -36.5t-43.5 -27.5l-917 -420q-23 -10 -30 -1t-7 26z" />
<glyph unicode="?" horiz-adv-x="1124" d="M121 1253q-16 29 10 47q49 37 106.5 65t115 46.5t112.5 27.5t102 9q96 0 181.5 -21.5t147.5 -65.5t98 -112.5t36 -161.5q0 -55 -18.5 -104t-47 -92t-66.5 -81t-77 -73t-75.5 -68.5t-66.5 -66.5t-47.5 -67.5t-17.5 -73.5v-43q0 -14 -6 -22.5t-24 -8.5h-174q-18 0 -24.5 8 t-6.5 23v57q0 63 22.5 114.5t57.5 94.5t78 80t84 74q59 53 105 108t46 131q0 25 -9 51.5t-33.5 49t-66.5 38t-106 15.5q-78 0 -156.5 -25.5t-154.5 -77.5q-16 -10 -28.5 -11t-22.5 16zM322 137q0 70 51 118t123 48q25 0 53.5 -8t53 -28.5t40.5 -52.5t16 -77q0 -70 -48 -118 t-119 -48q-72 0 -121 47.5t-49 118.5z" />
<glyph unicode="@" horiz-adv-x="2013" d="M160 664q0 178 68.5 330.5t188.5 263t283.5 173t354.5 62.5q184 0 332.5 -55.5t252 -156.5t159.5 -244.5t56 -321.5q0 -111 -30.5 -201t-88 -154.5t-136 -100.5t-173.5 -36q-104 0 -169.5 37t-83.5 92q-47 -35 -118 -62.5t-138 -27.5q-154 0 -231 67.5t-77 196.5 q0 57 19.5 110.5t61.5 94.5t109.5 65.5t166.5 24.5h170v19q0 29 -6.5 53.5t-22.5 41.5t-46 27.5t-79 10.5q-53 0 -114.5 -10.5t-104.5 -20.5q-23 -4 -34 -2t-15 23l-21 90q-4 16 0 26.5t27 20.5q131 43 289 43q172 0 248.5 -76t76.5 -219v-328q0 -16 3 -37.5t15.5 -43 t37 -36t67.5 -14.5q109 0 165 90t56 230q0 139 -43 253.5t-124.5 195.5t-197.5 126t-259 45q-162 0 -294 -52t-225.5 -141t-144.5 -211t-51 -259q0 -145 49 -266t139 -207.5t216 -134.5t278 -48q41 0 113.5 9.5t152.5 37.5q16 6 27.5 5t17.5 -19l31 -88q6 -18 -1 -27.5 t-24 -17.5q-74 -35 -161.5 -49.5t-161.5 -14.5q-197 0 -355.5 60.5t-270 168t-171 258t-59.5 331.5zM813 532q0 -63 44 -84.5t97 -21.5q35 0 84 13.5t97 45.5v179h-148q-27 0 -57.5 -3.5t-56 -16.5t-43 -39.5t-17.5 -72.5z" />
<glyph unicode="A" horiz-adv-x="1308" d="M32 14q-3 6 -2 13q0 8 3 16l442 1296q10 31 20.5 49.5t26 28.5t36 15.5t48.5 5.5h88q63 0 90 -19.5t47 -79.5l445 -1296q3 -9 3 -17q0 -6 -2 -12q-5 -14 -28 -14h-188q-23 0 -36 5t-21 28l-91 280h-520l-90 -278q-6 -18 -17.5 -26.5t-35.5 -8.5h-189q-23 0 -29 14z M455 526h393l-107 344l-86 291h-10l-84 -284z" />
<glyph unicode="B" horiz-adv-x="1359" d="M154 117v1202q0 59 24.5 88t89.5 29l475 2q94 0 176 -20.5t140.5 -63.5t92.5 -110.5t34 -162.5q0 -92 -46 -166.5t-116 -113.5v-15q57 -23 100 -60.5t70 -84.5t40 -100.5t13 -108.5q0 -96 -38 -176t-102.5 -137.5t-151.5 -88t-187 -30.5h-500q-66 0 -90 27.5t-24 89.5z M403 225h338q74 0 121 21.5t76 54.5t40 73t11 75q0 98 -62.5 160.5t-183.5 62.5h-340v-447zM403 879h332q29 0 62.5 7t62.5 26.5t47.5 53t18.5 89.5q0 74 -48.5 116.5t-129.5 42.5h-345v-335z" />
<glyph unicode="C" horiz-adv-x="1269" d="M113 700q0 170 47 309.5t131 238t202.5 152.5t264.5 54q92 0 189 -16.5t198 -69.5q16 -8 21 -19.5t-7 -39.5l-57 -119q-8 -20 -16.5 -26.5t-30.5 3.5q-68 27 -138.5 42.5t-148.5 15.5q-102 0 -177 -43t-123 -116t-71.5 -168t-23.5 -198q0 -102 19.5 -191t65.5 -155.5 t124.5 -105.5t195.5 -39q92 0 170 21.5t146 48.5q29 12 40 3.5t17 -24.5l53 -117q11 -23 11 -34q0 -3 -1 -6q-4 -11 -20 -21q-104 -61 -223 -82t-230 -21q-311 0 -469.5 180.5t-158.5 542.5z" />
<glyph unicode="D" horiz-adv-x="1409" d="M154 117v1202q0 59 24.5 88t89.5 29l379 2q166 0 289 -53.5t203 -147.5t118.5 -224t38.5 -286q0 -154 -34.5 -287t-110.5 -230t-195.5 -153.5t-287.5 -56.5h-400q-66 0 -90 27.5t-24 89.5zM406 223h227q119 0 196.5 38t123.5 104.5t65.5 157.5t19.5 200 q0 104 -19.5 193.5t-66.5 156t-127 104t-198 37.5h-221v-991z" />
<glyph unicode="E" horiz-adv-x="1224" d="M154 367v700q0 72 19.5 138.5t63.5 117.5t113.5 82t167.5 31h572q27 0 33.5 -11.5t6.5 -35.5v-129q0 -27 -7 -36.5t-33 -9.5h-545q-78 0 -110 -34.5t-32 -100.5v-215h619q27 0 34 -10t7 -39v-113q0 -25 -7 -36t-34 -11h-619v-299q0 -66 34 -99.5t108 -33.5h557 q29 0 36 -10t7 -39v-127q0 -23 -8.5 -35t-34.5 -12h-584q-109 0 -178.5 30.5t-111.5 82t-58 117t-16 137.5z" />
<glyph unicode="F" horiz-adv-x="1196" d="M154 43v1024q0 72 17 138.5t60 117.5t113 82t174 31h576q29 0 36 -11.5t7 -35.5v-127q0 -27 -8.5 -37.5t-34.5 -10.5h-549q-78 0 -110 -33.5t-32 -99.5v-239h615q27 0 34 -9.5t7 -37.5v-117q0 -23 -7.5 -35t-33.5 -12h-615v-588q0 -29 -9 -36t-38 -7h-155q-23 0 -35 8 t-12 35z" />
<glyph unicode="G" horiz-adv-x="1374" d="M113 705q0 170 43 308t126 236.5t202.5 151.5t273.5 53q94 0 197.5 -16.5t203.5 -69.5q16 -8 21.5 -19.5t-9.5 -39.5l-55 -127q-10 -20 -18 -25.5t-31 2.5q-68 27 -145.5 42.5t-157.5 15.5q-106 0 -181 -42t-121 -113t-67.5 -165t-21.5 -197q0 -104 17.5 -195 t61.5 -157.5t120.5 -104.5t193.5 -38q14 0 41 1t57.5 4t65.5 11t67 21v385q-12 2 -25.5 2h-27.5q-129 0 -264 -58q-25 -10 -36 -11t-21 20l-48 129q-8 16 -5 27.5t22 21.5q70 41 166 65.5t190 24.5q53 0 87 -3t67 -9q90 -16 121.5 -61.5t31.5 -139.5v-477q0 -25 -8 -42.5 t-30 -31.5q-57 -35 -126 -56.5t-135.5 -32.5t-123 -14.5t-91.5 -3.5q-311 0 -469.5 182.5t-158.5 545.5z" />
<glyph unicode="H" horiz-adv-x="1445" d="M154 43v1348q0 27 12 35t35 8h155q29 0 39.5 -7.5t10.5 -35.5v-531h636v531q0 27 11.5 35t36.5 8h155q29 0 38 -7.5t9 -35.5v-1348q0 -29 -9 -36t-38 -7h-155q-25 0 -36.5 8t-11.5 35v602h-636v-602q0 -29 -10.5 -36t-39.5 -7h-155q-23 0 -35 8t-12 35z" />
<glyph unicode="I" horiz-adv-x="606" d="M178 43v1348q0 27 11.5 35t35.5 8h156q29 0 39 -7.5t10 -35.5v-1348q0 -29 -10 -36t-39 -7h-156q-25 0 -36 8t-11 35z" />
<glyph unicode="J" horiz-adv-x="1179" d="M14 98q-1 2 -1 5q0 10 10 30l61 131q8 16 19.5 18.5t29.5 -6.5q68 -31 155 -52t177 -21q88 0 146.5 25.5t93 74.5t50 120t15.5 163l-2 805q0 29 12.5 36t34.5 7h158q27 0 37 -7.5t10 -35.5v-255t-1 -208.5t-1 -184.5v-184q0 -135 -31 -242.5t-96.5 -183.5t-169 -116 t-250.5 -40q-43 0 -99.5 5.5t-114.5 17.5t-115.5 31.5t-106.5 48.5q-16 10 -21 18z" />
<glyph unicode="K" horiz-adv-x="1343" d="M154 43v1348q0 27 12 35t35 8h153q29 0 38 -7.5t9 -35.5v-623l9 -4l204 260l312 381q12 14 30.5 21.5t49.5 7.5h208q18 0 24.5 -10.5t-5.5 -24.5l-399 -481l487 -871q10 -17 10 -28q0 -19 -31 -19h-182q-39 0 -55 5t-35 38l-366 668l-261 -320v-348q0 -29 -9 -36t-38 -7 h-153q-23 0 -35 8t-12 35z" />
<glyph unicode="L" horiz-adv-x="1159" d="M154 367v1026q0 27 11 35t36 8h153q29 0 39 -7.5t10 -35.5v-1026q0 -80 40 -113t110 -33h549q23 0 29 -8t6 -31v-143q0 -20 -6.5 -29.5t-28.5 -9.5h-588q-106 0 -176 30.5t-111 82t-57 117t-16 137.5z" />
<glyph unicode="M" horiz-adv-x="1716" d="M154 43v1268q0 63 24.5 94t93.5 31h84q53 0 80 -18.5t49 -74.5l244 -600l127 -317h8l127 319l242 598q23 55 51.5 74t81.5 19h78q66 0 92.5 -29t26.5 -92v-1272q0 -29 -10.5 -36t-36.5 -7h-146q-23 0 -34 7t-11 36v946h-12l-109 -278l-182 -453q-23 -53 -44.5 -71.5 t-72.5 -18.5h-92q-51 0 -72.5 18.5t-42.5 71.5l-180 432l-110 275h-13v-922q0 -29 -10 -36t-37 -7h-147q-23 0 -35 7t-12 36z" />
<glyph unicode="N" horiz-adv-x="1468" d="M154 43v1268q0 66 25.5 95.5t92.5 29.5h72q53 0 77.5 -19.5t57.5 -70.5l408 -678l174 -295h8v1020q0 27 10.5 35t36.5 8h152q27 0 37 -8.5t10 -34.5v-1270q0 -59 -24.5 -91t-94.5 -32h-72q-27 0 -45 4t-32.5 14.5t-27.5 27.5t-30 42l-409 680l-172 293h-9v-1018 q0 -29 -9 -36t-38 -7h-151q-23 0 -35 8t-12 35z" />
<glyph unicode="O" horiz-adv-x="1472" d="M113 715q0 176 46 313t129 232.5t196.5 145.5t250.5 50q154 0 271.5 -50t195.5 -145.5t118 -231.5t40 -306q0 -356 -156.5 -551t-474.5 -195q-309 0 -462.5 187.5t-153.5 550.5zM369 725q0 -119 17 -215t60 -165t114 -105.5t175 -36.5t175 43t114 113.5t60.5 163 t17.5 192.5q0 102 -15.5 195.5t-55.5 165t-110.5 113.5t-181.5 42q-94 0 -163.5 -40t-115.5 -109.5t-68.5 -161t-22.5 -195.5z" />
<glyph unicode="P" horiz-adv-x="1280" d="M154 43v1278q0 57 24.5 87t89.5 30h488q102 0 187 -32t145.5 -90.5t94.5 -139t34 -177.5q0 -55 -17.5 -131.5t-70 -148.5t-146.5 -122t-248 -50h-334v-504q0 -29 -9 -36t-38 -7h-153q-23 0 -35 8t-12 35zM403 758h308q129 0 188 63.5t59 161.5q0 35 -11 76t-38.5 74.5 t-77 56t-124.5 22.5h-304v-454z" />
<glyph unicode="Q" horiz-adv-x="1472" d="M113 715q0 176 46 313t129 232.5t196.5 145.5t250.5 50q154 0 271.5 -50t195.5 -145.5t118 -231.5t40 -306q0 -356 -156.5 -551t-474.5 -195q-309 0 -462.5 187.5t-153.5 550.5zM369 725q0 -119 17 -215t60 -165t114 -105.5t175 -36.5t175 43t114 113.5t60.5 163 t17.5 192.5q0 102 -15.5 195.5t-55.5 165t-110.5 113.5t-181.5 42q-94 0 -163.5 -40t-115.5 -109.5t-68.5 -161t-22.5 -195.5zM641 -143q0 20 6 28.5t29 8.5h231q172 0 305.5 -39t198.5 -86q16 -12 21 -23q1 -3 1 -6q0 -10 -8 -23l-59 -104q-10 -18 -26 -23q-4 -2 -8 -2 q-13 0 -29 11q-80 45 -195 70.5t-256 25.5h-176q-23 0 -29 9t-6 28v125z" />
<glyph unicode="R" horiz-adv-x="1325" d="M154 43v1278q0 59 24.5 88t89.5 29h484q102 0 186 -30t143.5 -85t91 -131t31.5 -168q0 -121 -58.5 -210t-152.5 -128v-8q72 -31 107 -84t55 -127l113 -424q2 -6 2 -11q0 -10 -4 -18q-6 -14 -25 -14h-182q-16 0 -32.5 5t-25.5 28l-98 379q-31 109 -88 147.5t-166 38.5 h-241v-555q0 -29 -9.5 -36t-38.5 -7h-159q-23 0 -35 8t-12 35zM410 807h303q125 0 181 59.5t56 145.5q0 31 -9 65.5t-33.5 65.5t-67.5 50t-113 19h-317v-405z" />
<glyph unicode="S" horiz-adv-x="1200" d="M80 141l61 140q14 31 45 18q98 -41 204 -68.5t204 -27.5q156 0 220.5 53t64.5 133q0 43 -16.5 76t-51.5 60.5t-88 53t-127 54.5q-111 43 -199 86t-147.5 93t-91 112.5t-31.5 142.5q0 86 28.5 157.5t86 124t144.5 81t204 28.5q55 0 114.5 -6t119 -16.5t114.5 -26.5 t102 -37q16 -10 20.5 -18t-3.5 -29l-49 -139q-8 -23 -15.5 -25t-23.5 2q-102 35 -200.5 52.5t-182.5 17.5q-106 0 -154.5 -44t-48.5 -104q0 -37 17.5 -66.5t56.5 -57t97 -55t142 -60.5q88 -37 168 -75t141.5 -89t97.5 -119.5t36 -167.5q0 -106 -40 -185t-108.5 -130 t-163 -77t-202.5 -26q-129 0 -270.5 25t-262.5 90q-18 8 -18 25q0 10 6 24z" />
<glyph unicode="T" horiz-adv-x="1150" d="M29 1253v142q0 23 6 31t28 8h1024q23 0 30 -8.5t7 -30.5v-142q0 -20 -7 -28t-30 -8h-389v-1174q0 -29 -9 -36t-38 -7h-159q-25 0 -36.5 8t-11.5 35v1174h-381q-23 0 -28.5 8t-5.5 28z" />
<glyph unicode="U" horiz-adv-x="1427" d="M152 1391q0 27 12 35t35 8h159q29 0 38.5 -7.5t9.5 -35.5v-781q0 -104 15 -182t57 -129t117 -76.5t196 -25.5q31 0 97 3t138 17v1174q0 27 11.5 35t35.5 8h160q29 0 35 -7.5t6 -35.5v-1192q0 -78 -35 -129.5t-127 -69.5q-39 -8 -83 -12t-87 -7.5t-82 -4.5t-69 -1 q-172 0 -294 32t-198 105.5t-110.5 196.5t-34.5 305z" />
<glyph unicode="V" horiz-adv-x="1329" d="M33 1405q-2 6 -2 11.5t2 9.5q4 10 20 10h197q23 0 32 -7.5t13 -23.5l262 -813l102 -326h13l94 322l268 819q6 20 17.5 24.5t31.5 4.5h195q16 0 19 -10q1 -4 1 -8q0 -6 -2 -13l-452 -1311q-18 -55 -44 -73.5t-75 -20.5h-111q-53 0 -80.5 17.5t-50.5 76.5z" />
<glyph unicode="W" horiz-adv-x="1765" d="M31 1403q-2 7 -2 12q0 21 26 21h199q23 0 34 -6.5t15 -26.5l131 -739l60 -345h12l69 345l140 663q10 53 35.5 81t91.5 28h100q57 0 81 -28t34 -77l137 -667l70 -340h12l59 342l133 735q8 35 45 35h199q25 0 25 -21q0 -5 -2 -12l-283 -1311q-14 -61 -43 -77.5t-82 -16.5 h-104q-51 0 -77 23.5t-40 82.5l-145 682l-70 347h-10l-72 -347l-150 -682q-12 -57 -36.5 -81.5t-75.5 -24.5h-109q-51 0 -80.5 15.5t-44.5 76.5z" />
<glyph unicode="X" horiz-adv-x="1206" d="M20 12q-2 4 -1 8q0 7 4 13l438 706l-408 666q-6 10 -2 20.5t23 10.5h192q33 0 46.5 -7.5t25.5 -29.5l268 -459l266 459q12 23 25.5 30t46.5 7h184q18 0 22.5 -11.5t-3.5 -23.5l-402 -658l439 -710q3 -5 3 -11q0 -4 -2 -10q-5 -12 -22 -12h-200q-31 0 -45.5 7t-26.5 30 l-291 502l-291 -502q-12 -23 -26.5 -30t-44.5 -7h-197q-17 0 -21 12z" />
<glyph unicode="Y" horiz-adv-x="1220" d="M23 1405q-2 5 -2 10t2 11q4 10 20 10h207q23 0 32 -7.5t19 -27.5l160 -314l149 -311h11l157 324l154 303q10 18 19.5 25.5t29.5 7.5h199q18 0 20 -10q1 -3 1 -6q0 -6 -3 -13l-459 -854v-516q0 -23 -8 -30t-31 -7h-170q-20 0 -29 7t-9 30v514z" />
<glyph unicode="Z" horiz-adv-x="1273" d="M61 104v39q0 45 13.5 75t42.5 63l778 931l-2 9h-694q-23 0 -29 9t-6 30v135q0 23 6 32t29 9h866q61 0 90 -23.5t29 -87.5v-53q0 -43 -17.5 -77t-44.5 -67l-751 -901l4 -12h788q23 0 29 -9t6 -32v-135q0 -23 -6 -31t-29 -8h-987q-55 0 -85 24.5t-30 79.5z" />
<glyph unicode="[" horiz-adv-x="681" d="M139 -145v1581q0 18 6.5 28.5t28.5 10.5h414q23 0 28 -9.5t5 -25.5v-111q0 -18 -6.5 -25.5t-28.5 -7.5h-215v-1302h217q23 0 28 -7t5 -26v-108q0 -20 -5.5 -28.5t-27.5 -8.5h-414q-23 0 -29 10t-6 29z" />
<glyph unicode="\" horiz-adv-x="919" d="M31 1559q-8 18 3 26t23 8h148q23 0 33 -8t18 -26l641 -1721q6 -18 -3 -26.5t-28 -8.5h-141q-43 0 -53 35z" />
<glyph unicode="]" horiz-adv-x="686" d="M117 -39q0 18 5 25.5t28 7.5h217v1302h-217q-23 0 -28 8.5t-5 24.5v109q0 20 5 28.5t28 8.5h411q23 0 30 -10.5t7 -28.5v-1581q0 -18 -7 -28.5t-30 -10.5h-414q-20 0 -25 8t-5 29v108z" />
<glyph unicode="^" horiz-adv-x="1126" d="M64.5 784.5q-5.5 10.5 5.5 24.5l381 623q14 23 30.5 40t44.5 17h54q37 0 51 -12.5t31 -38.5l380 -625q12 -18 4 -27.5t-24 -9.5h-156q-20 0 -33.5 6t-23.5 25l-248 422h-6l-242 -414q-14 -25 -25.5 -33t-37.5 -8h-160q-20 0 -25.5 10.5z" />
<glyph unicode="_" horiz-adv-x="1024" d="M-33 -184q0 23 5 32t28 9h1024q23 0 29 -9.5t6 -31.5v-56q0 -23 -6 -31t-29 -8h-1024q-23 0 -28 8.5t-5 30.5v56z" />
<glyph unicode="`" horiz-adv-x="1101" d="M302 1548.5q3 10.5 20 14.5l178 47q23 4 32 -3.5t13 -17.5l137 -338q10 -20 6 -27t-20 -12l-84 -30q-16 -4 -25.5 -1t-21.5 19l-230 328q-8 10 -5 20.5z" />
<glyph unicode="a" horiz-adv-x="1140" d="M92 319q0 72 23.5 138.5t77 117t138.5 81t208 30.5h229v35q0 39 -8 71.5t-31.5 57t-64.5 38t-107 13.5q-70 0 -151.5 -12t-133.5 -29q-23 -6 -33 -2t-14 23l-28 116q-8 33 18 43q86 33 188.5 46.5t192.5 13.5q213 0 312.5 -94.5t99.5 -274.5v-614q0 -49 -39 -68 q-45 -20 -97.5 -34.5t-107.5 -22.5t-109.5 -11.5t-103.5 -3.5q-135 0 -224 28t-141.5 74t-73 108.5t-20.5 131.5zM336 328q0 -88 59.5 -123t157.5 -35q14 0 39.5 1t54.5 5t60.5 10.5t58.5 16.5v301h-197q-35 0 -74.5 -4t-75.5 -22.5t-59.5 -53.5t-23.5 -96z" />
<glyph unicode="b" horiz-adv-x="1189" d="M133 100v1360q0 23 9.5 30t31.5 7h160q23 0 31 -6t8 -31v-397q59 18 129.5 27.5t126.5 9.5q123 0 212 -41t145 -115t84 -175t28 -220q0 -123 -30 -227.5t-93.5 -181.5t-161.5 -120t-233 -43q-104 0 -214 16.5t-202 57.5q-18 8 -24.5 19.5t-6.5 29.5zM373 207 q49 -16 102 -21.5t94 -5.5q63 0 115.5 19.5t89.5 62.5t57.5 111t20.5 166q0 180 -69.5 268t-192.5 88q-33 0 -92.5 -6t-124.5 -27v-655z" />
<glyph unicode="c" horiz-adv-x="1009" d="M92 530q0 129 35 234.5t99.5 180.5t155.5 115t206 40q84 0 162.5 -17.5t148.5 -54.5q18 -10 22.5 -20.5t-6.5 -30.5l-51 -121q-8 -16 -17 -20.5t-34 6.5q-49 18 -102.5 31.5t-112.5 13.5q-70 0 -120 -30t-81.5 -79t-46 -113.5t-14.5 -134.5q0 -72 12 -134t42 -109t81 -74 t131 -27q66 0 131.5 16.5t108.5 37.5q23 10 32 6t15 -21l51 -119q8 -13 8 -23q0 -17 -20 -28q-84 -47 -181.5 -62.5t-181.5 -15.5q-229 0 -351 139.5t-122 413.5z" />
<glyph unicode="d" horiz-adv-x="1187" d="M92 522q0 115 29 219.5t90 183.5t155.5 126t227.5 47q41 0 97.5 -4t121.5 -21v387q0 23 9 29t32 6h160q20 0 29.5 -6t9.5 -29v-1358q0 -39 -59.5 -63.5t-138.5 -37.5t-156.5 -18.5t-112.5 -5.5q-137 0 -231.5 39t-153 111t-84 172t-25.5 223zM340 522q0 -188 72.5 -265 t205.5 -77q43 0 101.5 8.5t93.5 22.5v657q-63 16 -109.5 20.5t-87.5 4.5q-121 0 -198.5 -86t-77.5 -285z" />
<glyph unicode="e" horiz-adv-x="1130" d="M92 532q0 135 37 241t101.5 178.5t155 110.5t196.5 38q236 0 349 -121t113 -332q0 -53 -12 -88t-34.5 -55.5t-52.5 -28.5t-64 -8h-545q2 -80 24.5 -134t61.5 -88t90 -48.5t111 -14.5q66 0 129 16.5t110 39.5q33 14 45 -13l56 -116q14 -33 -15 -48q-78 -47 -170 -65.5 t-176 -18.5q-248 0 -379 133.5t-131 421.5zM344 639h471q0 55 -10 102t-36 83t-69.5 56.5t-113.5 20.5q-55 0 -98.5 -21.5t-74 -58.5t-49 -84t-20.5 -98z" />
<glyph unicode="f" horiz-adv-x="753" d="M18 924v77q0 18 6.5 27.5t28.5 13.5l146 33v129q0 141 74.5 226.5t242.5 85.5q31 0 99.5 -5.5t136.5 -25.5q18 -6 20 -15q1 -4 1 -7q0 -8 -3 -17l-27 -131q-6 -27 -36 -21q-41 8 -78 11.5t-64 3.5q-76 0 -102.5 -33t-26.5 -80v-121h248q23 0 28 -7t5 -26v-118 q0 -16 -5 -24.5t-28 -8.5h-248v-856q0 -23 -8 -29t-31 -6h-159q-20 0 -29.5 6t-9.5 29v856h-148q-23 0 -28 9t-5 24z" />
<glyph unicode="g" horiz-adv-x="1187" d="M92 528q0 123 31 227.5t94.5 179.5t160.5 118t232 43q104 0 213 -15.5t201 -56.5q20 -10 26.5 -21.5t6.5 -27.5v-877q0 -139 -35 -237.5t-103.5 -164t-170 -102t-236.5 -55.5q-6 -1 -11 -1q-25 0 -28 24l-20 155q-2 27 24 33q76 12 138.5 29.5t106.5 47.5t67.5 74 t23.5 109v13q-59 -18 -128 -27.5t-126 -9.5q-121 0 -209 40t-145.5 111.5t-85 171t-27.5 219.5zM338 539q0 -180 69.5 -264.5t192.5 -84.5q33 0 91.5 6.5t123.5 24.5v647q-49 14 -101 20.5t-93 6.5q-63 0 -115.5 -19.5t-89.5 -61.5t-57.5 -109.5t-20.5 -165.5z" />
<glyph unicode="h" horiz-adv-x="1196" d="M133 35v1427q0 23 9.5 29t29.5 6h160q23 0 31 -6t8 -29v-401q59 20 129.5 29.5t126.5 9.5q227 0 332.5 -126t105.5 -349v-590q0 -23 -9 -29t-32 -6h-162q-20 0 -29.5 6t-9.5 29v573q0 139 -55 212t-184 73q-53 0 -111.5 -7t-101.5 -26v-825q0 -23 -8.5 -29t-30.5 -6h-160 q-20 0 -29.5 6t-9.5 29z" />
<glyph unicode="i" horiz-adv-x="585" d="M147 1356q0 61 43 104t105 43q61 0 104 -43t43 -104t-43 -104.5t-104 -43.5t-104.5 43t-43.5 105zM174 35v1005q0 23 9.5 29t29.5 6h158q23 0 32 -6t9 -29v-1005q0 -23 -9.5 -29t-31.5 -6h-158q-20 0 -29.5 6t-9.5 29z" />
<glyph unicode="j" horiz-adv-x="610" d="M-42 -264q7 8 24 18q68 31 108.5 71t63 88t29.5 102.5t7 115.5v909q0 23 9.5 29t29.5 6h162q23 0 31 -6t8 -29v-882q0 -147 -28.5 -251t-79 -174.5t-119 -113.5t-146.5 -70q-11 -3 -19 -3q-22 0 -28 20l-51 143q-4 11 -4 18q0 6 3 9zM164 1356q0 61 44 104t103 43 q61 0 104.5 -43t43.5 -104t-43 -104.5t-105 -43.5q-59 0 -103 43t-44 105z" />
<glyph unicode="k" horiz-adv-x="1069" d="M131 35v1427q0 23 9.5 29t29.5 6h160q23 0 31 -6t8 -29v-819l8 -4l350 416q10 10 18.5 15t30.5 5h207q18 0 21.5 -11t-7.5 -22l-272 -325l315 -686q2 -6 2 -11.5t-2 -9.5q-4 -10 -22 -10h-184q-41 0 -52 29l-223 499l-190 -217v-276q0 -23 -8.5 -29t-30.5 -6h-160 q-20 0 -29.5 6t-9.5 29z" />
<glyph unicode="l" horiz-adv-x="620" d="M152 217v1245q0 23 9 29t29 6h162q23 0 32 -6t9 -29v-1188q0 -53 14.5 -72.5t55.5 -19.5q16 0 37.5 2t36.5 4q16 2 23 -3t9 -21l15 -115q2 -10 2 -17q0 -6 -2 -10q-4 -8 -25 -18q-41 -16 -93 -21.5t-93 -5.5q-115 0 -168 53.5t-53 186.5z" />
<glyph unicode="m" horiz-adv-x="1863" d="M133 35v870q0 37 5 65.5t19.5 50t42 36t70.5 24.5q14 2 45 6.5t67 6.5t70.5 4t59.5 2q125 0 213 -24.5t156 -78.5q72 47 169 75t207 28q127 0 217.5 -37t146.5 -102.5t83 -158.5t27 -204v-563q0 -23 -9.5 -29t-31.5 -6h-158q-20 0 -29.5 6t-9.5 29v532q0 166 -59.5 246 t-206.5 80q-53 0 -119 -13.5t-107 -35.5q25 -57 33 -123t8 -143v-543q0 -23 -9 -29t-32 -6h-159q-20 0 -29.5 6t-9.5 29v547q0 72 -11.5 129t-41 98t-84 63.5t-140.5 22.5q-12 0 -32.5 -1t-43 -2t-44 -4t-35.5 -5v-848q0 -23 -8.5 -29t-30.5 -6h-160q-20 0 -29.5 6t-9.5 29z " />
<glyph unicode="n" horiz-adv-x="1196" d="M133 35v876q0 74 26.5 115t110.5 55q20 2 55 6.5t74 6.5t76 4t64 2q135 0 234 -29t163.5 -91t95.5 -162.5t31 -242.5v-540q0 -23 -8 -29t-31 -6h-162q-20 0 -29.5 6t-9.5 29v545q0 80 -13 139t-46 98t-89.5 58.5t-142.5 19.5q-23 0 -64.5 -1t-96.5 -11v-848 q0 -23 -8.5 -29t-30.5 -6h-160q-20 0 -29.5 6t-9.5 29z" />
<glyph unicode="o" horiz-adv-x="1177" d="M92 537q0 135 37 239.5t102.5 176t156.5 109.5t202 38q244 0 369.5 -148.5t125.5 -408.5q0 -272 -125.5 -419t-375.5 -147q-248 0 -370 142.5t-122 417.5zM334 543q0 -170 55 -267.5t197 -97.5q72 0 121 30t78.5 79t43 113.5t13.5 136.5q0 74 -11.5 139t-39 115.5 t-75.5 79t-122 28.5q-66 0 -115 -27.5t-81.5 -74.5t-48 -113t-15.5 -141z" />
<glyph unicode="p" horiz-adv-x="1187" d="M133 -381v1352q0 18 6 28.5t27 20.5q102 45 216 61.5t216 16.5q133 0 227.5 -43t154.5 -119t88 -178.5t28 -218.5q0 -115 -30 -216.5t-89 -178t-149.5 -120.5t-211.5 -44q-55 0 -113.5 6t-129.5 22v-389q0 -23 -8.5 -29t-30.5 -6h-162q-20 0 -29.5 6.5t-9.5 28.5z M373 213q63 -16 111 -22.5t89 -6.5q59 0 109.5 18.5t87.5 60.5t57.5 110t20.5 168q0 98 -19.5 164.5t-56.5 108.5t-90 60.5t-119 18.5q-41 0 -97 -8t-93 -21v-651z" />
<glyph unicode="q" horiz-adv-x="1189" d="M92 524q0 125 31 229.5t93.5 181.5t160.5 120t233 43q104 0 213 -16.5t201 -57.5q20 -10 26.5 -21.5t6.5 -27.5v-1362q0 -23 -9.5 -29t-31.5 -6h-160q-23 0 -32 6t-9 29v403q-59 -18 -129 -27t-127 -9q-123 0 -211 39.5t-144.5 112.5t-84 172t-27.5 220zM338 537 q0 -180 69.5 -266.5t192.5 -86.5q33 0 91.5 6.5t123.5 26.5v651q-49 16 -101 21.5t-93 5.5q-63 0 -115.5 -19.5t-89.5 -62.5t-57.5 -110.5t-20.5 -165.5z" />
<glyph unicode="r" horiz-adv-x="901" d="M152 35v878q0 82 27.5 122t115.5 52q37 4 75 7.5t76 3.5q125 0 241 -33t210 -111q13 -9 13 -18q0 -8 -7 -21l-94 -135q-10 -16 -20.5 -14t-24.5 12q-59 51 -128 79t-151 28q-25 0 -49 -2t-47 -6v-842q0 -23 -9 -29t-32 -6h-158q-20 0 -29 6t-9 29z" />
<glyph unicode="s" horiz-adv-x="987" d="M76 117l49 114q10 18 20.5 23.5t32.5 -4.5q74 -35 164 -54.5t160 -19.5q86 0 129 34t43 87q0 59 -55.5 94t-165.5 76q-84 31 -146.5 61.5t-103.5 68.5t-62.5 85t-21.5 109q0 68 24.5 124t72.5 97t120 64.5t166 23.5q86 0 172 -15.5t166 -48.5q16 -8 19 -20t-1 -29 l-47 -117q-6 -16 -15.5 -18t-25.5 4q-80 29 -140.5 39t-129.5 10q-76 0 -111 -31.5t-35 -70.5q0 -29 11.5 -49.5t36 -38t64.5 -35.5t97 -39q66 -25 128.5 -52.5t110.5 -66.5t77.5 -92t29.5 -129q0 -82 -30.5 -143.5t-85 -101.5t-128 -59.5t-159.5 -19.5q-49 0 -104.5 5.5 t-110.5 15.5t-106.5 27.5t-94.5 42.5q-20 10 -20 28q0 9 6 21z" />
<glyph unicode="t" horiz-adv-x="804" d="M31 928v84q0 18 6 26.5t26 12.5l156 34l27 195q4 23 13 31t32 16l119 41q6 1 11 1q9 0 15 -4q10 -7 10 -30v-260h220q23 0 27.5 -9t4.5 -24v-114q0 -18 -5 -26.5t-27 -8.5h-220v-594q0 -66 31 -90.5t94 -24.5q12 0 33 1t42.5 3t43 5.5t35.5 5.5q20 4 26.5 -1t8.5 -20 l22 -131q1 -8 1 -15v-6q-1 -10 -19 -18q-70 -23 -139.5 -27t-108.5 -4q-168 0 -237.5 72t-69.5 219v625h-146q-23 0 -27.5 9t-4.5 26z" />
<glyph unicode="u" horiz-adv-x="1175" d="M133 502v540q0 23 8.5 29t30.5 6h160q20 0 29.5 -6t9.5 -29v-544q0 -80 10 -139.5t40 -98.5t83 -58.5t139 -19.5q23 0 65 1t97 12v847q0 23 8 29t31 6h160q20 0 29 -6t9 -29v-876q0 -72 -32.5 -114t-104.5 -56q-27 -4 -61.5 -8t-71.5 -6t-71.5 -3.5t-61.5 -1.5 q-139 0 -235.5 29t-156 91.5t-87 162.5t-27.5 242z" />
<glyph unicode="v" horiz-adv-x="1075" d="M31 1047q-2 6 -2 11q0 17 22 17h2h185q23 0 30.5 -5t12.5 -21l157 -486l101 -348h12l100 346l152 486q4 16 11 22t30 6h180q23 0 23 -14q0 -5 -3 -12l-319 -959q-20 -59 -46 -79.5t-79 -20.5h-115q-45 0 -72.5 17.5t-50.5 82.5z" />
<glyph unicode="w" horiz-adv-x="1572" d="M39 1051q-2 6 -2 11q0 17 22 17h2h185q20 0 27.5 -5t11.5 -21l90 -480l55 -311h12l76 264l117 416q12 41 34.5 65.5t82.5 24.5h84q51 0 68.5 -25.5t31.5 -68.5l113 -389l84 -299h12l53 319l88 484q4 16 10.5 20t26.5 4l188 2q24 0 24 -19q0 -4 -1 -9l-221 -959 q-16 -66 -47 -84t-74 -18h-92q-53 0 -77 18.5t-42 77.5l-102 346l-88 322h-9l-90 -332l-104 -336q-16 -53 -41 -74.5t-78 -21.5h-96q-43 0 -71 18.5t-44 83.5z" />
<glyph unicode="x" horiz-adv-x="1019" d="M25 39l350 528l-309 473q-6 10 -4.5 22.5t20.5 12.5h190q25 0 37.5 -7t22.5 -24l180 -313l186 313q10 16 22.5 23.5t35.5 7.5h184q23 0 24 -11t-3 -20l-318 -469l354 -538q6 -10 6 -20q0 -17 -24 -17h-195q-29 0 -40 9t-21 26l-217 366l-221 -366q-10 -16 -23.5 -25.5 t-38.5 -9.5h-182q-25 0 -25 15q0 10 9 24z" />
<glyph unicode="y" horiz-adv-x="1069" d="M23 1047q-2 6 -2 11q0 17 22 17h2h188q23 0 31 -5t12 -21l140 -471l106 -371h13l114 375l152 465q4 16 11 22t30 6h186q23 0 23 -15q0 -5 -2 -11l-410 -1225v2q-47 -141 -130 -199.5t-212 -58.5q-33 0 -81 4t-99 20q-23 4 -28 12.5t-1 26.5l29 125q4 20 13 23.5t28 -0.5 q35 -8 54 -11.5t46 -3.5q72 0 114 28t66 102l43 129h-49q-37 0 -60.5 12t-41.5 71z" />
<glyph unicode="z" horiz-adv-x="985" d="M43 82v43q0 31 8 61.5t37 61.5l559 629l-2 6h-516q-23 0 -29 8t-6 27v122q0 16 6 25.5t29 9.5h709q51 0 74.5 -17.5t23.5 -66.5v-49q0 -29 -8 -56.5t-31 -51.5l-563 -633l4 -6h565q23 0 29 -9.5t6 -25.5v-125q0 -18 -6 -26.5t-29 -8.5h-768q-51 0 -71.5 23.5t-20.5 58.5z " />
<glyph unicode="{" horiz-adv-x="784" d="M125 612v111q0 14 5 19.5t22 9.5q53 8 81.5 47t28.5 129v192q0 193 101.5 273t279.5 84q23 2 23 -21v-131q0 -25 -23 -27q-88 -4 -118.5 -47t-30.5 -110v-211q0 -104 -39 -169t-103 -93v-9q63 -27 102.5 -90t39.5 -172v-262q0 -66 30.5 -109.5t116.5 -50.5q16 -2 20.5 -7 t4.5 -15v-137q0 -23 -21 -23q-86 2 -155.5 23.5t-121 64.5t-79 111.5t-27.5 165.5v248q0 90 -29.5 129.5t-82.5 46.5q-14 4 -19.5 9t-5.5 21z" />
<glyph unicode="|" horiz-adv-x="485" d="M141 -264v1831q0 23 9.5 30t29.5 7h135q23 0 31 -7.5t8 -29.5v-1831q0 -23 -8 -30t-31 -7h-135q-20 0 -29.5 7t-9.5 30z" />
<glyph unicode="}" horiz-adv-x="784" d="M129 -47q0 20 25 22q86 6 116.5 51.5t30.5 110.5v260q0 109 40 172.5t103 92.5v6q-66 29 -104.5 93t-38.5 171v211q0 68 -30.5 110.5t-118.5 46.5q-23 2 -23 27v129q0 23 23 23q90 -2 160.5 -22.5t119.5 -62.5t76 -108.5t27 -163.5v-194q0 -88 27.5 -128t80.5 -48 q18 -2 23.5 -8.5t5.5 -20.5v-111q0 -27 -25 -28q-53 -8 -82.5 -48t-29.5 -130v-248q0 -96 -28 -165t-79 -112t-121.5 -63.5t-156.5 -22.5q-20 0 -21 21v137z" />
<glyph unicode="~" d="M139 588q66 88 134.5 131t154.5 43q57 0 112.5 -19.5t107.5 -42t100.5 -42t91.5 -19.5q47 0 78.5 26.5t68.5 73.5q16 23 43 6l88 -61q14 -10 14 -20.5t-8 -24.5q-51 -86 -121.5 -135t-164.5 -49q-55 0 -108.5 18.5t-106 42t-101.5 41.5t-92 18q-47 0 -86 -20t-78 -61 q-20 -20 -41 -7l-80 62q-20 18 -6 39z" />
<glyph unicode="&#xa2;" d="M205 530q0 238 111.5 387.5t308.5 176.5v174q0 18 7 23t21 5h64q16 0 21 -5t5 -23v-170q72 -4 140.5 -20.5t128.5 -49.5q18 -10 22 -20.5t-6 -30.5l-51 -121q-8 -16 -17.5 -20.5t-33.5 6.5q-43 16 -88 27.5t-95 15.5v-699q59 4 115.5 19.5t95.5 34.5q23 10 32 6t15 -21 l52 -119q20 -33 -13 -51q-68 -39 -146.5 -55t-150.5 -20v-175q0 -18 -5 -23t-21 -5h-64q-14 0 -21 5t-7 23v175q-205 16 -312.5 153t-107.5 397zM449 530q0 -59 8 -113.5t28.5 -98.5t54 -75.5t85.5 -45.5v675q-47 -16 -80 -50t-54.5 -79t-31.5 -100.5t-10 -112.5z" />
<glyph unicode="&#xa3;" d="M154 668v88q0 20 6 29.5t28 9.5h129q-2 18 -7 44.5t-10 55.5t-9 57.5t-4 53.5q0 100 34.5 171.5t97 117.5t148.5 68.5t189 22.5q92 0 178 -17t158 -58q18 -10 21 -21.5t-9 -34.5l-49 -104q-8 -18 -17.5 -23.5t-33.5 5.5q-53 23 -113.5 35t-126.5 12q-106 0 -169 -44 t-63 -130q0 -16 3.5 -44t7.5 -58t9 -59.5t9 -49.5h369q23 0 29 -8.5t6 -30.5v-88q0 -23 -6.5 -30t-28.5 -7h-350q2 -29 3 -57.5t1 -57.5q-2 -76 -16.5 -160t-73.5 -149h600q23 0 27.5 -7t4.5 -30v-133q0 -23 -5 -30t-27 -7h-850q-84 0 -84 66v45q0 43 14 64.5t43 47.5 q39 31 62.5 66t37 71.5t18.5 73.5t7 74q2 16 2 49t-4 74h-152q-23 0 -28.5 7t-5.5 30z" />
<glyph unicode="&#xa5;" d="M106 1348q-4 8 0.5 18t20.5 10h192q23 0 32 -5t18 -25l143 -316l117 -285h10l115 285l137 316q10 31 47 30h195q16 0 18 -9t-2 -19l-275 -572h220q23 0 27.5 -9t4.5 -28v-71q0 -20 -5 -28.5t-27 -8.5h-906q-23 0 -27.5 8t-4.5 29v71q0 18 5 27.5t27 9.5h197zM156 420v72 q0 18 5 27t27 9h906q23 0 27.5 -9t4.5 -27v-72q0 -20 -5 -28.5t-27 -8.5h-342v-350q0 -23 -7.5 -28t-29.5 -5h-164q-18 0 -27.5 6t-9.5 27v350h-326q-23 0 -27.5 8t-4.5 29z" />
<glyph unicode="&#xa8;" horiz-adv-x="1167" d="M266 1368q0 53 40 93t93 40t94.5 -40t41.5 -93q0 -51 -41 -91t-95 -40q-53 0 -93 40t-40 91zM659 1368q0 27 11.5 50.5t30 42t43 29.5t51.5 11q53 0 93 -40t40 -93q0 -51 -40 -91t-93 -40q-27 0 -51.5 11.5t-43 29.5t-30 41.5t-11.5 48.5z" />
<glyph unicode="&#xa9;" horiz-adv-x="1701" d="M113 717q0 158 56 293t155.5 234t235.5 155.5t294 56.5t293 -56.5t235.5 -155.5t156.5 -234t56 -293t-56 -293t-156.5 -234.5t-235.5 -156t-293 -56.5t-294 56.5t-235.5 156t-155.5 234.5t-56 293zM238 717q0 -135 47 -250t129 -198t194.5 -129t245.5 -46q131 0 243.5 46 t194.5 129t129 198t47 250t-47 248.5t-129 196.5t-194.5 129t-243.5 46q-133 0 -245.5 -46t-194.5 -129t-129 -196.5t-47 -248.5zM457 702q0 106 28.5 194.5t80.5 152t125 97.5t163 34q96 0 175 -37t120 -96q8 -10 4 -17.5t-14 -17.5l-68 -64q-12 -12 -23.5 -6t-21.5 16 q-35 33 -76 51.5t-94 18.5q-117 0 -175 -89t-58 -237q0 -145 58 -234t173 -89q55 0 96 21.5t74 56.5q18 18 24.5 17t20.5 -13l78 -66q20 -14 2 -33q-51 -63 -120 -100t-173 -37q-94 0 -168 36t-125 99.5t-78.5 150.5t-27.5 191z" />
<glyph unicode="&#xab;" horiz-adv-x="1075" d="M121 508q0 27 12 50.5t23 41.5l186 309q14 23 28.5 34t53.5 11h143q20 0 27.5 -13t-2.5 -32l-240 -405l250 -402q12 -23 4 -34t-31 -11h-145q-39 0 -54.5 11.5t-25.5 31.5l-198 322q-10 18 -20.5 43t-10.5 43zM502 508q0 27 12 50.5t23 41.5l186 309q14 23 28.5 34 t53.5 11h143q20 0 27.5 -13t-2.5 -32l-240 -405l250 -402q12 -23 4 -34t-31 -11h-145q-39 0 -54.5 11.5t-25.5 31.5l-199 322q-10 18 -20 43t-10 43z" />
<glyph unicode="&#xad;" horiz-adv-x="768" d="M102 512v168q0 23 6.5 31t28.5 8h494q23 0 29 -8.5t6 -30.5v-168q0 -20 -6.5 -29.5t-28.5 -9.5h-494q-23 0 -29 9.5t-6 29.5z" />
<glyph unicode="&#xae;" horiz-adv-x="1157" d="M104 979q0 100 37 187t100.5 151.5t150.5 101.5t188 37q100 0 187 -37t149.5 -101.5t98.5 -151.5t36 -187t-37 -187t-101.5 -150.5t-150.5 -99.5t-184 -36q-100 0 -187.5 36t-151 99.5t-99.5 150.5t-36 187zM201 979q0 -80 28.5 -150.5t78.5 -122t120 -81t150 -29.5 t148.5 29.5t118.5 81t78.5 121t28.5 151.5t-28.5 152.5t-78.5 123t-119 82t-148 29.5q-80 0 -150 -29.5t-120 -82t-78.5 -123t-28.5 -152.5zM379 727v481q0 51 49 52h180q82 0 129 -45.5t47 -116.5q0 -43 -22.5 -79t-56.5 -56v-2q31 -10 44 -32t19 -46l41 -154q2 -8 1 -14 t-17 -6h-70q-10 0 -15.5 2t-7.5 14l-41 139q-10 39 -31.5 54.5t-56.5 15.5h-86v-207q0 -12 -4 -15t-16 -3h-68q-10 0 -14 3t-4 15zM485 1022h111q43 0 62.5 20.5t19.5 49.5q0 23 -15.5 47t-62.5 24h-115v-141z" />
<glyph unicode="&#xb4;" horiz-adv-x="1021" d="M393.5 1225.5q-2.5 9.5 3.5 25.5l140 336q14 33 51 23l172 -47q16 -4 19 -14.5t-5 -20.5l-231 -328q-12 -18 -21.5 -20t-25.5 2l-84 28q-16 6 -18.5 15.5z" />
<glyph unicode="&#xb8;" horiz-adv-x="1026" d="M340 -393l20 55q8 18 14.5 19.5t20.5 -3.5q70 -25 131 -24q102 0 103 67q0 35 -35 49.5t-80 14.5h-41t-22 10t-8.5 24.5t6.5 30.5l69 187q2 4 6 10t17 6h80q14 0 14 -7t-2 -11l-55 -148q63 -4 107 -20.5t69.5 -40t37 -52t11.5 -57.5q0 -33 -14.5 -66.5t-43 -60t-75.5 -44 t-111 -17.5q-55 0 -112.5 11t-92.5 28q-25 10 -14 39z" />
<glyph unicode="&#xbb;" horiz-adv-x="1075" d="M90 68.5q-8 11.5 4 33.5l250 402l-240 405q-10 18 -2.5 31.5t27.5 13.5h143q37 0 52.5 -11t29.5 -34l187 -309q10 -18 22 -41.5t12 -50.5q0 -18 -11 -43t-21 -43l-197 -322q-10 -20 -25.5 -31.5t-54.5 -11.5h-145q-23 0 -31 11.5zM471 68.5q-8 11.5 4 33.5l250 402 l-240 405q-10 18 -3 31.5t28 13.5h143q39 0 53.5 -11t28.5 -34l187 -309q10 -18 22 -41.5t12 -50.5q0 -18 -11 -43t-21 -43l-197 -322q-10 -20 -25.5 -31.5t-54.5 -11.5h-145q-23 0 -31 11.5z" />
<glyph unicode="&#x2c6;" horiz-adv-x="1183" d="M221 1225q-16 18 0 39l268 274q49 49 99 49q35 0 57.5 -10t48.5 -39l264 -272q27 -27 0 -49l-47 -46q-10 -8 -21 -7t-28 12l-272 192l-271 -197q-27 -16 -47 5z" />
<glyph unicode="&#x2da;" horiz-adv-x="1120" d="M375 1393q0 45 17.5 85t48 68.5t72.5 45t89 16.5q94 0 159.5 -60.5t65.5 -154.5t-65.5 -154.5t-159.5 -60.5q-96 0 -161.5 59t-65.5 156zM498 1393q0 -47 28.5 -76t75.5 -29q43 0 73 29t30 76t-29 75.5t-74 28.5q-47 0 -75.5 -28.5t-28.5 -75.5z" />
<glyph unicode="&#x2dc;" horiz-adv-x="1175" d="M223.5 1308.5q-2.5 8.5 5.5 24.5q37 74 88.5 116t137.5 42q37 0 70.5 -12.5t66.5 -25.5t63.5 -25.5t61.5 -12.5q37 0 58.5 16.5t37.5 45.5q10 18 17.5 21t23.5 -3l82 -29q23 -8 26 -14t-4 -22q-35 -80 -88 -131.5t-139 -51.5q-37 0 -71.5 12.5t-68.5 26.5t-69 26.5 t-69 12.5q-27 0 -48.5 -16.5t-44.5 -44.5q-10 -14 -17 -17.5t-24 4.5l-73 39q-20 10 -22.5 18.5z" />
<glyph unicode="&#x401;" horiz-adv-x="1224" d="M154 367v700q0 72 19.5 138.5t63.5 117.5t113.5 82t167.5 31h572q27 0 33.5 -11.5t6.5 -35.5v-129q0 -27 -7 -36.5t-33 -9.5h-545q-78 0 -110 -34.5t-32 -100.5v-215h619q27 0 34 -10t7 -39v-113q0 -25 -7 -36t-34 -11h-619v-299q0 -66 34 -99.5t108 -33.5h557 q29 0 36 -10t7 -39v-127q0 -23 -8.5 -35t-34.5 -12h-584q-109 0 -178.5 30.5t-111.5 82t-58 117t-16 137.5zM354 1667q0 53 40 93t93 40t94.5 -40t41.5 -93q0 -51 -41 -91t-95 -40q-53 0 -93 40t-40 91zM748 1667q0 27 11 50.5t29.5 42t43 29.5t51.5 11q53 0 93 -40t40 -93 q0 -51 -40 -91t-93 -40q-27 0 -51.5 11.5t-43 29.5t-29.5 41.5t-11 48.5z" />
<glyph unicode="&#x402;" horiz-adv-x="1626" d="M29 1253v142q0 23 6 31t28 8h1129q23 0 29 -8.5t6 -30.5v-142q0 -20 -6.5 -28t-28.5 -8l-502 -3v-309q82 23 176.5 37t171.5 14q229 0 363.5 -130t134.5 -371q0 -63 -13.5 -142.5t-49 -160t-97 -157.5t-157.5 -138q-16 -10 -26.5 -10.5t-23.5 16.5l-88 114q-12 25 9 41 q203 147 202 433q0 147 -83 223t-218 76q-74 0 -151.5 -14.5t-149.5 -39.5v-661q0 -23 -7 -29t-30 -6h-178q-20 0 -29.5 6t-9.5 29v1179h-373q-23 0 -28.5 8.5t-5.5 30.5z" />
<glyph unicode="&#x403;" horiz-adv-x="1144" d="M154 43v1024q0 72 17 138.5t60 117.5t113 82t174 31h563q29 0 36 -11.5t7 -35.5v-127q0 -27 -8 -37.5t-35 -10.5h-536q-78 0 -110 -33.5t-32 -99.5v-1038q0 -29 -9 -36t-38 -7h-155q-23 0 -35 8t-12 35zM496 1618.5q0 7.5 16 21.5l307 236q14 10 24.5 11t22.5 -15 l113 -141q20 -25 -4 -37l-373 -181q-12 -6 -20.5 -6t-18.5 13l-57 79q-10 12 -10 19.5z" />
<glyph unicode="&#x404;" horiz-adv-x="1269" d="M113 711q0 168 47 305t131 234.5t202.5 150.5t264.5 53q92 0 189 -16.5t198 -69.5q16 -8 21 -19.5t-7 -39.5l-57 -119q-8 -20 -16.5 -26.5t-30.5 3.5q-68 27 -138.5 42.5t-148.5 15.5q-84 0 -150.5 -29t-114.5 -79t-78 -118.5t-40 -148.5h537q23 0 28.5 -7t5.5 -30v-133 q0 -23 -6 -30t-28 -7h-547q2 -96 24.5 -175t70.5 -137.5t123.5 -90t184.5 -31.5q92 0 170 21.5t146 48.5q29 12 40 3.5t17 -24.5l53 -117q14 -29 10 -40t-20 -21q-104 -61 -223 -82t-230 -21q-311 0 -469.5 185.5t-158.5 548.5z" />
<glyph unicode="&#x405;" horiz-adv-x="1200" d="M80 141l61 140q14 31 45 18q98 -41 204 -68.5t204 -27.5q156 0 220.5 53t64.5 133q0 43 -16.5 76t-51.5 60.5t-88 53t-127 54.5q-111 43 -199 86t-147.5 93t-91 112.5t-31.5 142.5q0 86 28.5 157.5t86 124t144.5 81t204 28.5q55 0 114.5 -6t119 -16.5t114.5 -26.5 t102 -37q16 -10 20.5 -18t-3.5 -29l-49 -139q-8 -23 -15.5 -25t-23.5 2q-102 35 -200.5 52.5t-182.5 17.5q-106 0 -154.5 -44t-48.5 -104q0 -37 17.5 -66.5t56.5 -57t97 -55t142 -60.5q88 -37 168 -75t141.5 -89t97.5 -119.5t36 -167.5q0 -106 -40 -185t-108.5 -130 t-163 -77t-202.5 -26q-129 0 -270.5 25t-262.5 90q-29 12 -12 49z" />
<glyph unicode="&#x406;" horiz-adv-x="606" d="M178 43v1348q0 27 11.5 35t35.5 8h156q29 0 39 -7.5t10 -35.5v-1348q0 -29 -10 -36t-39 -7h-156q-25 0 -36 8t-11 35z" />
<glyph unicode="&#x407;" horiz-adv-x="606" d="M-31 1667q0 53 40 93t93 40t94.5 -40t41.5 -93q0 -51 -41 -91t-95 -40q-53 0 -93 40t-40 91zM178 43v1348q0 27 11.5 35t35.5 8h156q29 0 39 -7.5t10 -35.5v-1348q0 -29 -10 -36t-39 -7h-156q-25 0 -36 8t-11 35zM362 1667q0 27 11.5 50.5t30 42t43 29.5t51.5 11 q53 0 93 -40t40 -93q0 -51 -40 -91t-93 -40q-27 0 -51.5 11.5t-43 29.5t-30 41.5t-11.5 48.5z" />
<glyph unicode="&#x408;" horiz-adv-x="1179" d="M14.5 98q-4.5 8 8.5 35l61 131q8 16 19.5 18.5t29.5 -6.5q68 -31 155 -52t177 -21q88 0 146.5 25.5t93 74.5t50 120t15.5 163l-2 805q0 29 12.5 36t34.5 7h158q27 0 37 -7.5t10 -35.5v-255t-1 -208.5t-1 -184.5v-184q0 -135 -31 -242.5t-96.5 -183.5t-169 -116 t-250.5 -40q-43 0 -99.5 5.5t-114.5 17.5t-115.5 31.5t-106.5 48.5q-16 10 -20.5 18z" />
<glyph unicode="&#x409;" horiz-adv-x="2076" d="M17 145.5q3 12.5 26 22.5q86 37 134 94t75 153.5t40 241t30 357.5l20 284q4 74 36 106t95 32h557q131 0 131 -140v-395h336q117 0 199 -23.5t138 -62.5t90 -87t51.5 -99t22.5 -98.5t5 -84.5q0 -96 -38 -178t-103.5 -141t-152.5 -93t-187 -34h-498q-66 0 -90.5 27.5 t-24.5 89.5v1097h-336l-12 -178q-16 -229 -33.5 -409.5t-60.5 -313.5t-125 -219t-225 -129q-20 -4 -33.5 1t-22.5 28l-43 121q-4 18 -1 30.5zM1161 225h334q74 0 122 23.5t76.5 58.5t40 76t11.5 76q0 98 -62.5 164.5t-183.5 66.5h-338v-465z" />
<glyph unicode="&#x40a;" horiz-adv-x="2125" d="M154 35v1364q0 23 9 29t30 6h176q23 0 31 -6.5t8 -28.5v-518h550v520q0 23 9.5 29t29.5 6h174q23 0 31 -6.5t8 -28.5v-518h336q174 0 275.5 -49.5t152.5 -119t64.5 -145t13.5 -131.5q0 -96 -38 -177t-103.5 -139.5t-152.5 -90t-187 -31.5h-498q-66 0 -90.5 27.5 t-24.5 89.5v555h-550v-637q0 -23 -8.5 -29t-30.5 -6h-176q-20 0 -29.5 6t-9.5 29zM1210 225h334q74 0 122 22.5t77 56.5t40 74t11 75q0 98 -62.5 159.5t-183.5 61.5h-338v-449z" />
<glyph unicode="&#x40b;" horiz-adv-x="1619" d="M29 1253v142q0 23 6 31t28 8h1119q23 0 29 -8.5t6 -30.5v-142q0 -20 -6.5 -28t-28.5 -8h-492v-314q80 23 173 37t171 14q238 0 355.5 -121.5t117.5 -351.5v-440q0 -27 -10 -34t-33 -7h-159q-23 0 -34 8t-11 33v426q0 139 -69 211t-212 72q-57 0 -137 -15.5t-152 -40.5 v-659q0 -23 -7 -29t-30 -6h-176q-20 0 -29.5 6t-9.5 29v1182h-375q-23 0 -28.5 8t-5.5 28z" />
<glyph unicode="&#x40c;" horiz-adv-x="1318" d="M154 33v1368q0 23 9 28t27 5h177q20 0 28 -5.5t4 -27.5v-533h219q31 0 66 5.5t68.5 26t62.5 59t45 104.5l90 346q4 20 17.5 24.5t23.5 4.5h168q27 0 30 -15.5t-1 -25.5l-90 -367q-20 -86 -62.5 -150.5t-107.5 -103.5v-10q53 -18 88 -42t57.5 -55.5t35.5 -69.5t26 -83 l127 -475q4 -10 1 -25.5t-30 -15.5h-180q-10 0 -22.5 4t-18.5 25l-123 448q-31 111 -91.5 146.5t-166.5 35.5h-232l2 -626q0 -23 -8 -28t-28 -5h-175q-18 0 -27 5t-9 28zM487.5 1625q-0.5 7 16.5 22l307 235q14 10 24.5 11t22.5 -15l113 -141q20 -25 -4 -37l-373 -180 q-12 -6 -20.5 -6.5t-18.5 12.5l-57 80q-10 12 -10.5 19z" />
<glyph unicode="&#x40e;" horiz-adv-x="1204" d="M33 1405q-12 33 24 33h193q29 0 38 -8.5t15 -26.5l184 -481l127 -347h15l127 367l166 463q8 20 17 26.5t32 6.5h188q16 0 21.5 -9.5t1.5 -21.5l-439 -1184q-29 -78 -63.5 -129t-80.5 -80.5t-103.5 -42t-128.5 -12.5q-31 0 -78 5t-96 20q-23 8 -29 15t-2 24l26 137 q4 20 13.5 22t29.5 0q37 -4 67 -7t58 -1q63 2 100.5 22.5t63.5 90.5l43 114h-43q-41 0 -64.5 13.5t-45.5 70.5zM249 1738.5q-3 10.5 13 26.5l57 54q18 16 25.5 11t24.5 -18q63 -66 127.5 -102.5t124.5 -36.5q25 0 49 6.5t53 22.5t65.5 45t85.5 72q18 16 26.5 14t19.5 -10 l57 -49q20 -16 17 -26.5t-9 -18.5q-94 -121 -188.5 -177.5t-186.5 -56.5q-55 0 -106 18.5t-95 50t-83 72.5t-70 86q-4 6 -7 16.5z" />
<glyph unicode="&#x40f;" horiz-adv-x="1443" d="M154 137v1262q0 23 9 29t30 6h172q23 0 30.5 -6.5t7.5 -28.5v-1182h635v1182q0 23 9.5 29t29.5 6h172q23 0 31 -6.5t8 -28.5v-1262q0 -137 -129 -137h-309l-19 -293q0 -37 -30 -37h-148q-16 0 -23 7.5t-7 29.5l-17 293h-321q-61 0 -96 34t-35 103z" />
<glyph unicode="&#x410;" horiz-adv-x="1308" d="M32.5 13.5q-5.5 13.5 0.5 29.5l442 1296q10 31 20.5 49.5t26 28.5t36 15.5t48.5 5.5h88q63 0 90 -19.5t47 -79.5l445 -1296q6 -16 1 -29.5t-28 -13.5h-188q-23 0 -36 5t-21 28l-91 280h-520l-90 -278q-6 -18 -17.5 -26.5t-35.5 -8.5h-189q-23 0 -28.5 13.5zM455 526h393 l-107 344l-86 291h-10l-84 -284z" />
<glyph unicode="&#x411;" horiz-adv-x="1320" d="M154 115v1179q0 139 131 140h772q23 0 29 -9.5t6 -31.5v-140q0 -20 -6.5 -28t-28.5 -8h-651v-318h335q117 0 199 -23.5t138.5 -62.5t90 -87t51 -99.5t22.5 -98.5t5 -84q0 -96 -38 -178t-103.5 -141t-153.5 -92t-188 -33h-496q-66 0 -90 26.5t-24 88.5zM406 223h333 q74 0 121 23.5t76 58.5t40 77t11 77q0 98 -62.5 164.5t-181.5 66.5h-337v-467z" />
<glyph unicode="&#x412;" horiz-adv-x="1359" d="M154 117v1202q0 59 24.5 88t89.5 29l475 2q94 0 176 -20.5t140.5 -63.5t92.5 -110.5t34 -162.5q0 -92 -46 -166.5t-116 -113.5v-15q57 -23 100 -60.5t70 -84.5t40 -100.5t13 -108.5q0 -96 -38 -176t-102.5 -137.5t-151.5 -88t-187 -30.5h-500q-66 0 -90 27.5t-24 89.5z M403 225h338q74 0 121 21.5t76 54.5t40 73t11 75q0 98 -62.5 160.5t-183.5 62.5h-340v-447zM403 879h332q29 0 62.5 7t62.5 26.5t47.5 53t18.5 89.5q0 74 -48.5 116.5t-129.5 42.5h-345v-335z" />
<glyph unicode="&#x413;" horiz-adv-x="1144" d="M154 43v1024q0 72 17 138.5t60 117.5t113 82t174 31h563q29 0 36 -11.5t7 -35.5v-127q0 -27 -8 -37.5t-35 -10.5h-536q-78 0 -110 -33.5t-32 -99.5v-1038q0 -29 -9 -36t-38 -7h-155q-23 0 -35 8t-12 35z" />
<glyph unicode="&#x414;" horiz-adv-x="1529" d="M20 119q0 35 13.5 64.5t60.5 33.5l74 6q37 41 60.5 85t39 95.5t25.5 114t20 139.5l84 652q10 63 45 94t107 31h633q76 0 105.5 -34t29.5 -104v-1077l84 -4q49 -4 60.5 -27.5t8.5 -50.5l-26 -438q-2 -23 -9.5 -30t-23.5 -7h-137q-16 0 -22.5 7t-8.5 30l-12 301h-955 l-24 -301q-2 -23 -10.5 -30t-24.5 -7h-135q-14 0 -22.5 7t-10.5 30zM444 221h625v993h-446l-50 -405q-18 -160 -32.5 -258t-28.5 -159.5t-29.5 -97.5t-38.5 -73z" />
<glyph unicode="&#x415;" horiz-adv-x="1224" d="M154 367v700q0 72 19.5 138.5t63.5 117.5t113.5 82t167.5 31h572q27 0 33.5 -11.5t6.5 -35.5v-129q0 -27 -7 -36.5t-33 -9.5h-545q-78 0 -110 -34.5t-32 -100.5v-215h619q27 0 34 -10t7 -39v-113q0 -25 -7 -36t-34 -11h-619v-299q0 -66 34 -99.5t108 -33.5h557 q29 0 36 -10t7 -39v-127q0 -23 -8.5 -35t-34.5 -12h-584q-109 0 -178.5 30.5t-111.5 82t-58 117t-16 137.5z" />
<glyph unicode="&#x416;" horiz-adv-x="2019" d="M60 15.5q-3 15.5 1 25.5l127 475q12 43 25.5 81t36 69.5t57.5 56.5t88 43v10q-68 39 -108.5 103.5t-61.5 150.5l-90 367q-4 10 -1 25.5t30 15.5h168q10 0 23.5 -4t17.5 -25l88 -346q18 -66 46 -104.5t59.5 -59t66.5 -26t65 -5.5h189v533q-4 23 4 28t29 5h176 q18 0 27.5 -5.5t9.5 -27.5v-533h186q31 0 65.5 5.5t66.5 26t59.5 59t45.5 104.5l91 346q4 20 17 24.5t24 4.5h167q27 0 30 -15.5t-1 -25.5l-90 -367q-20 -86 -62 -150.5t-108 -103.5v-10q53 -18 88 -42t57.5 -55.5t36 -69.5t25.5 -83l127 -475q4 -10 1 -25.5t-30 -15.5h-182 q-10 0 -22.5 4t-18.5 25l-121 448q-16 55 -36.5 91t-51.5 55.5t-72 27.5t-94 8h-198v-626q0 -23 -9.5 -28t-27.5 -5h-174q-20 0 -28.5 5t-8.5 28l2 626h-199q-53 0 -94 -8t-71.5 -27.5t-53.5 -55.5t-37 -91l-119 -448q-6 -20 -18 -24.5t-23 -4.5h-182q-27 0 -30 15.5z" />
<glyph unicode="&#x417;" horiz-adv-x="1236" d="M42 103.5q-3 11.5 9 39.5l55 113q6 16 18.5 23.5t41.5 -3.5q35 -14 80 -28.5t94 -24.5t98 -17t97 -7q176 0 262 69.5t86 180.5q0 39 -16.5 76.5t-52.5 66.5t-93 47t-137 18h-107q-43 0 -60.5 13.5t-17.5 54.5v59q0 37 15.5 55.5t52.5 18.5h117q129 0 194.5 56.5 t65.5 148.5q0 90 -74 131t-184 41q-98 0 -188.5 -23.5t-161.5 -52.5q-29 -10 -41.5 -2t-18.5 25l-43 108q-12 33 -9 43t21 21q94 55 217 79.5t240 24.5q104 0 195.5 -22.5t159 -67.5t106.5 -114.5t39 -163.5q0 -111 -63.5 -196t-166.5 -126v-10q59 -12 108.5 -42t85.5 -74 t56.5 -98.5t20.5 -115.5q0 -100 -43 -182t-120 -141.5t-182.5 -93.5t-230.5 -34q-55 0 -121.5 5.5t-134 16.5t-132 31.5t-118.5 51.5q-16 10 -19 21.5z" />
<glyph unicode="&#x418;" horiz-adv-x="1472" d="M154 123v1278q0 23 9 29t30 6h169q23 0 31 -6.5t8 -28.5v-1036h9l170 286l413 695q31 53 55.5 71.5t77.5 18.5h74q68 0 93.5 -30t25.5 -95v-1276q0 -23 -9.5 -29t-29.5 -6h-170q-23 0 -31 6t-8 29v1040h-8l-180 -311l-404 -676q-31 -51 -55.5 -69.5t-79.5 -18.5h-72 q-70 0 -94 31.5t-24 91.5z" />
<glyph unicode="&#x419;" horiz-adv-x="1472" d="M154 123v1278q0 23 9 29t30 6h169q23 0 31 -6.5t8 -28.5v-1036h9l170 286l413 695q31 53 55.5 71.5t77.5 18.5h74q68 0 93.5 -30t25.5 -95v-1276q0 -23 -9.5 -29t-29.5 -6h-170q-23 0 -31 6t-8 29v1040h-8l-180 -311l-404 -676q-31 -51 -55.5 -69.5t-79.5 -18.5h-72 q-70 0 -94 31.5t-24 91.5zM359.5 1736.5q-3.5 10.5 13.5 26.5l57 54q18 16 25.5 11t23.5 -18q63 -66 128 -102.5t124 -36.5q25 0 49.5 6t53 22.5t65.5 45.5t86 72q18 16 26.5 14t18.5 -10l57 -49q20 -16 17.5 -26.5t-8.5 -19.5q-94 -121 -188.5 -177t-186.5 -56 q-55 0 -106.5 18.5t-95.5 50t-83 72.5t-69 86q-4 6 -7.5 16.5z" />
<glyph unicode="&#x41a;" horiz-adv-x="1318" d="M154 33v1368q0 23 9 28t27 5h177q20 0 28 -5.5t4 -27.5v-533h219q31 0 66 5.5t68.5 26t62.5 59t45 104.5l90 346q4 20 17.5 24.5t23.5 4.5h168q27 0 30 -15.5t-1 -25.5l-90 -367q-20 -86 -62.5 -150.5t-107.5 -103.5v-10q53 -18 88 -42t57.5 -55.5t35.5 -69.5t26 -83 l127 -475q4 -10 1 -25.5t-30 -15.5h-180q-10 0 -22.5 4t-18.5 25l-123 448q-31 111 -91.5 146.5t-166.5 35.5h-232l2 -626q0 -23 -8 -28t-28 -5h-175q-18 0 -27 5t-9 28z" />
<glyph unicode="&#x41b;" horiz-adv-x="1431" d="M17 145.5q3 12.5 26 22.5q86 37 134 94t75 153.5t40 241t30 357.5l20 282q4 74 36 106t95 32h672q131 0 131 -138v-1261q0 -23 -8 -29t-31 -6h-174q-20 0 -29.5 6t-9.5 29v1179h-451l-12 -178q-16 -229 -33.5 -409.5t-60.5 -313.5t-125 -219t-225 -129q-20 -4 -33.5 1 t-22.5 28l-43 121q-4 18 -1 30.5z" />
<glyph unicode="&#x41c;" horiz-adv-x="1716" d="M154 43v1268q0 63 24.5 94t93.5 31h84q53 0 80 -18.5t49 -74.5l244 -600l127 -317h8l127 319l242 598q23 55 51.5 74t81.5 19h78q66 0 92.5 -29t26.5 -92v-1272q0 -29 -10.5 -36t-36.5 -7h-146q-23 0 -34 7t-11 36v946h-12l-109 -278l-182 -453q-23 -53 -44.5 -71.5 t-72.5 -18.5h-92q-51 0 -72.5 18.5t-42.5 71.5l-180 432l-110 275h-13v-922q0 -29 -10 -36t-37 -7h-147q-23 0 -35 7t-12 36z" />
<glyph unicode="&#x41d;" horiz-adv-x="1445" d="M154 43v1348q0 27 12 35t35 8h155q29 0 39.5 -7.5t10.5 -35.5v-531h636v531q0 27 11.5 35t36.5 8h155q29 0 38 -7.5t9 -35.5v-1348q0 -29 -9 -36t-38 -7h-155q-25 0 -36.5 8t-11.5 35v602h-636v-602q0 -29 -10.5 -36t-39.5 -7h-155q-23 0 -35 8t-12 35z" />
<glyph unicode="&#x41e;" horiz-adv-x="1472" d="M113 715q0 176 46 313t129 232.5t196.5 145.5t250.5 50q154 0 271.5 -50t195.5 -145.5t118 -231.5t40 -306q0 -356 -156.5 -551t-474.5 -195q-309 0 -462.5 187.5t-153.5 550.5zM369 725q0 -119 17 -215t60 -165t114 -105.5t175 -36.5t175 43t114 113.5t60.5 163 t17.5 192.5q0 102 -15.5 195.5t-55.5 165t-110.5 113.5t-181.5 42q-94 0 -163.5 -40t-115.5 -109.5t-68.5 -161t-22.5 -195.5z" />
<glyph unicode="&#x41f;" horiz-adv-x="1443" d="M154 35v1261q0 72 34.5 106t96.5 34h874q131 0 131 -140v-1261q0 -23 -9 -29t-32 -6h-170q-20 0 -29.5 6t-9.5 29v1179h-634v-1179q0 -23 -9.5 -29t-31.5 -6h-172q-20 0 -29.5 6t-9.5 29z" />
<glyph unicode="&#x420;" horiz-adv-x="1280" d="M154 43v1278q0 57 24.5 87t89.5 30h488q102 0 187 -32t145.5 -90.5t94.5 -139t34 -177.5q0 -55 -17.5 -131.5t-70 -148.5t-146.5 -122t-248 -50h-334v-504q0 -29 -9 -36t-38 -7h-153q-23 0 -35 8t-12 35zM403 758h308q129 0 188 63.5t59 161.5q0 35 -11 76t-38.5 74.5 t-77 56t-124.5 22.5h-304v-454z" />
<glyph unicode="&#x421;" horiz-adv-x="1269" d="M113 700q0 170 47 309.5t131 238t202.5 152.5t264.5 54q92 0 189 -16.5t198 -69.5q16 -8 21 -19.5t-7 -39.5l-57 -119q-8 -20 -16.5 -26.5t-30.5 3.5q-68 27 -138.5 42.5t-148.5 15.5q-102 0 -177 -43t-123 -116t-71.5 -168t-23.5 -198q0 -102 19.5 -191t65.5 -155.5 t124.5 -105.5t195.5 -39q92 0 170 21.5t146 48.5q29 12 40 3.5t17 -24.5l53 -117q14 -29 10 -40t-20 -21q-104 -61 -223 -82t-230 -21q-311 0 -469.5 180.5t-158.5 542.5z" />
<glyph unicode="&#x422;" horiz-adv-x="1150" d="M29 1253v142q0 23 6 31t28 8h1024q23 0 30 -8.5t7 -30.5v-142q0 -20 -7 -28t-30 -8h-389v-1174q0 -29 -9 -36t-38 -7h-159q-25 0 -36.5 8t-11.5 35v1174h-381q-23 0 -28.5 8t-5.5 28z" />
<glyph unicode="&#x423;" horiz-adv-x="1204" d="M33 1405q-12 33 24 33h193q29 0 38 -8.5t15 -26.5l184 -481l127 -347h15l127 367l166 463q8 20 17 26.5t32 6.5h188q16 0 21.5 -9.5t1.5 -21.5l-439 -1184q-29 -78 -63.5 -129t-80.5 -80.5t-103.5 -42t-128.5 -12.5q-31 0 -78 5t-96 20q-23 8 -29 15t-2 24l26 137 q4 20 13.5 22t29.5 0q37 -4 67 -7t58 -1q63 2 100.5 22.5t63.5 90.5l43 114h-43q-41 0 -64.5 13.5t-45.5 70.5z" />
<glyph unicode="&#x424;" horiz-adv-x="1740" d="M113 733q0 129 45 236.5t127 187.5t197.5 130t254.5 67v45q0 23 9.5 29t31.5 6h172q23 0 31 -6.5t8 -28.5v-45q309 -29 474 -189.5t165 -429.5q0 -133 -46 -240.5t-131 -187.5t-203 -129t-259 -63v-80q0 -23 -8 -29t-31 -6h-172q-23 0 -32 6t-9 29v82 q-303 29 -463.5 189.5t-160.5 426.5zM354 735q0 -82 22.5 -152.5t70 -126t119 -91t171.5 -48.5v836q-92 -12 -163.5 -50t-121 -94.5t-74 -127t-24.5 -146.5zM989 317q104 10 179 47t123 93.5t71.5 128t23.5 151.5q0 78 -22.5 149.5t-69.5 127t-122.5 93.5t-182.5 48v-838z " />
<glyph unicode="&#x425;" horiz-adv-x="1206" d="M20.5 11.5q-4.5 11.5 2.5 21.5l438 706l-408 666q-6 10 -2 20.5t23 10.5h192q33 0 46.5 -7.5t25.5 -29.5l268 -459l266 459q12 23 25.5 30t46.5 7h184q18 0 22.5 -11.5t-3.5 -23.5l-402 -658l439 -710q6 -10 1 -21.5t-22 -11.5h-200q-31 0 -45.5 7t-26.5 30l-291 502 l-291 -502q-12 -23 -26.5 -30t-44.5 -7h-197q-16 0 -20.5 11.5z" />
<glyph unicode="&#x426;" horiz-adv-x="1497" d="M154 139v1262q0 23 9 29t30 6h172q23 0 32 -6.5t9 -28.5v-1182h634v1182q0 23 9.5 29t29.5 6h170q23 0 32 -6.5t9 -28.5v-1176l80 -8q29 -4 44.5 -12t22.5 -20.5t7 -26v-27.5l-25 -434q-2 -23 -10 -30t-23 -7h-135q-31 0 -32 37l-15 303h-919q-61 0 -96 34t-35 105z" />
<glyph unicode="&#x427;" horiz-adv-x="1323" d="M78 1008v393q0 23 8 29t31 6h170q23 0 31 -6.5t8 -28.5v-369q0 -158 88 -227.5t276 -69.5q59 0 120.5 7.5t111.5 17.5v641q0 23 8 29t31 6h169q23 0 31 -6.5t8 -28.5v-1366q0 -23 -8 -29t-31 -6h-169q-23 0 -31 6t-8 29v506q-57 -10 -125 -15.5t-133 -5.5 q-301 0 -443.5 123t-142.5 365z" />
<glyph unicode="&#x428;" horiz-adv-x="2025" d="M154 139v1262q0 23 9 29t30 6h178q23 0 31 -6.5t8 -28.5v-1182h485v1182q0 23 9 29t32 6h168q23 0 32 -6.5t9 -28.5v-1182h475v1182q0 23 8 29t31 6h174q23 0 31 -6.5t8 -28.5v-1262q0 -72 -34 -105.5t-91 -33.5h-1471q-59 0 -90.5 34t-31.5 105z" />
<glyph unicode="&#x429;" horiz-adv-x="2078" d="M154 139v1262q0 23 9 29t30 6h178q23 0 31 -6.5t8 -28.5v-1182h485v1182q0 23 9 29t32 6h168q23 0 32 -6.5t9 -28.5v-1182h475v1182q0 23 9 29t30 6h172q23 0 32 -6.5t9 -28.5v-1176l76 -6q29 -2 44 -10t23 -20.5t9 -27t1 -28.5l-24 -434q-2 -23 -10.5 -30t-22.5 -7h-135 q-31 0 -33 37l-14 301h-1510q-59 0 -90.5 34t-31.5 105z" />
<glyph unicode="&#x42a;" horiz-adv-x="1691" d="M14 1253v142q0 23 6.5 31t28.5 8h600q131 0 131 -138v-395h334q117 0 199 -23.5t138 -62.5t89 -87t50.5 -99t22.5 -98.5t5 -84.5q0 -96 -38 -178t-103.5 -141t-152.5 -93t-187 -34h-494q-66 0 -90.5 27.5t-24.5 89.5v1100h-479q-23 0 -29 8t-6 28zM780 225h330 q74 0 122 23.5t76.5 58.5t40 76t11.5 76q0 98 -62.5 164.5t-181.5 66.5h-336v-465z" />
<glyph unicode="&#x42b;" horiz-adv-x="1787" d="M154 117v1284q0 23 9 29t30 6h174q23 0 31 -6.5t8 -28.5v-500h335q117 0 199 -23.5t138.5 -62.5t90 -87t51 -99t22.5 -98.5t5 -84.5q0 -96 -38 -178t-103.5 -141t-152.5 -93t-187 -34h-498q-66 0 -90 27.5t-24 89.5zM406 225h333q74 0 122 23.5t77 58.5t40 76t11 76 q0 98 -62.5 164.5t-183.5 66.5h-337v-465zM1382 35v1364q0 23 9.5 29t29.5 6h174q23 0 31 -6.5t8 -28.5v-1364q0 -23 -8 -29t-31 -6h-174q-20 0 -29.5 6t-9.5 29z" />
<glyph unicode="&#x42c;" horiz-adv-x="1320" d="M154 117v1284q0 23 9 29t30 6h174q23 0 31 -6.5t8 -28.5v-500h335q117 0 199 -23.5t138.5 -62.5t90 -87t51 -99t22.5 -98.5t5 -84.5q0 -96 -38 -178t-103.5 -141t-152.5 -93t-187 -34h-498q-66 0 -90 27.5t-24 89.5zM406 225h333q74 0 122 23.5t77 58.5t40 76t11 76 q0 98 -62.5 164.5t-183.5 66.5h-337v-465z" />
<glyph unicode="&#x42d;" horiz-adv-x="1277" d="M61.5 101.5q-4.5 11.5 10.5 39.5l53 117q6 16 17.5 24.5t39.5 -3.5q68 -27 147 -48.5t171 -21.5q109 0 182.5 31.5t119.5 89t69.5 138.5t29.5 177h-545q-23 0 -28.5 8.5t-5.5 28.5v133q0 23 6 31t28 8h543q-8 82 -34.5 150.5t-71.5 117.5t-111 76t-154 27 q-80 0 -156.5 -15.5t-144.5 -42.5q-23 -10 -32 -4t-17 27l-49 119q-12 29 -8 40t20 19q100 51 207 68.5t199 17.5q293 0 455.5 -177t162.5 -525q0 -375 -159.5 -575t-468.5 -200q-111 0 -231 20.5t-224 82.5q-16 10 -20.5 21.5z" />
<glyph unicode="&#x42e;" horiz-adv-x="1937" d="M154 35v1364q0 23 9 29t30 6h169q23 0 31 -6.5t8 -28.5v-541h236q16 137 64.5 248t125 188.5t180 119.5t228.5 42q143 0 253.5 -53t185.5 -149.5t113 -233.5t38 -303q0 -170 -39 -307.5t-116 -233.5t-188.5 -147.5t-258.5 -51.5q-158 0 -267.5 53.5t-179 145.5 t-103.5 213t-42 256h-230v-610q0 -23 -8 -29t-31 -6h-169q-20 0 -29.5 6t-9.5 29zM883 719q0 -113 19.5 -208t61.5 -163.5t106.5 -107.5t156.5 -39t156.5 40t106.5 108.5t60.5 162.5t18.5 205t-17.5 205t-56.5 162.5t-102.5 107.5t-157.5 39q-90 0 -155.5 -39t-109.5 -106.5 t-65.5 -162t-21.5 -204.5z" />
<glyph unicode="&#x42f;" horiz-adv-x="1339" d="M68.5 13.5q-2.5 13.5 1.5 29.5l108 406q20 76 60.5 129t126.5 81v3q-117 47 -173.5 140t-56.5 216q0 92 32 169t91 132t142 86t188 31h481q66 0 90.5 -29t24.5 -88v-1286q0 -23 -9.5 -28t-29.5 -5h-174q-23 0 -32 5t-9 28v563h-240q-98 0 -162.5 -39t-93.5 -147 l-100 -377q-6 -25 -22.5 -29t-32.5 -4h-181q-27 0 -29.5 13.5zM389 1008q0 -86 55.5 -144.5t180.5 -58.5h303v405h-316q-70 0 -112.5 -20.5t-67 -50t-34 -65t-9.5 -66.5z" />
<glyph unicode="&#x430;" horiz-adv-x="1140" d="M92 319q0 72 23.5 138.5t77 117t138.5 81t208 30.5h229v35q0 39 -8 71.5t-31.5 57t-64.5 38t-107 13.5q-70 0 -151.5 -12t-133.5 -29q-23 -6 -33 -2t-14 23l-28 116q-8 33 18 43q86 33 188.5 46.5t192.5 13.5q213 0 312.5 -94.5t99.5 -274.5v-614q0 -49 -39 -68 q-45 -20 -97.5 -34.5t-107.5 -22.5t-109.5 -11.5t-103.5 -3.5q-135 0 -224 28t-141.5 74t-73 108.5t-20.5 131.5zM336 328q0 -88 59.5 -123t157.5 -35q14 0 39.5 1t54.5 5t60.5 10.5t58.5 16.5v301h-197q-35 0 -74.5 -4t-75.5 -22.5t-59.5 -53.5t-23.5 -96z" />
<glyph unicode="&#x431;" horiz-adv-x="1177" d="M88 518q0 190 16.5 339t63.5 260.5t133 186t227 115.5q39 12 86.5 23.5t96.5 21t98 18.5t94 19q20 4 30.5 2t14.5 -24l33 -123q10 -29 -1 -36t-22 -11l-245 -56q-102 -23 -166 -48t-101.5 -64t-56 -92.5t-29.5 -130.5q2 0 7 -5q74 49 155.5 68.5t149.5 19.5 q119 0 198.5 -39.5t129 -108.5t71 -160t21.5 -193q0 -90 -26 -183.5t-85 -168t-159.5 -123t-248.5 -48.5q-158 0 -253 47.5t-147 124t-68.5 174t-16.5 195.5zM330 485q0 -68 12 -124t41 -98t77 -64.5t120 -22.5q78 0 129 28.5t81.5 75t43 102.5t12.5 110q0 61 -10.5 117.5 t-37 99.5t-70.5 69.5t-112 26.5q-63 0 -136.5 -21.5t-135.5 -64.5q-10 -80 -12 -130t-2 -104z" />
<glyph unicode="&#x432;" horiz-adv-x="1171" d="M133 94v883q0 47 23.5 72.5t76.5 25.5h463q66 0 127.5 -15.5t108.5 -48t74.5 -83.5t27.5 -123q0 -68 -33.5 -125t-89.5 -86v-12q90 -35 129 -107t39 -151q0 -74 -28.5 -133.5t-77.5 -101.5t-117 -65.5t-145 -23.5h-475q-55 0 -79 25.5t-24 68.5zM369 190h297 q51 0 83.5 14.5t51 37t26 49t7.5 49.5q0 66 -41 106.5t-125 40.5h-299v-297zM369 659h301q18 0 38.5 5.5t38 18.5t28.5 35.5t11 55.5q0 45 -28.5 74t-79.5 29h-309v-218z" />
<glyph unicode="&#x433;" horiz-adv-x="968" d="M133 41v702q0 66 13.5 125.5t50 105.5t101 73.5t167.5 27.5h444q27 0 33 -11t6 -34v-110q0 -23 -7 -33t-32 -10h-407q-72 0 -101.5 -30t-29.5 -95v-711q0 -27 -8.5 -34t-36.5 -7h-148q-23 0 -34 8t-11 33z" />
<glyph unicode="&#x434;" horiz-adv-x="1286" d="M14 104q0 31 11.5 53.5t54.5 26.5l59 6q27 27 44.5 56.5t29.5 66.5t21.5 81t17.5 102l70 469q8 57 39.5 83.5t101.5 26.5h514q76 0 96.5 -30.5t20.5 -83.5v-773l63 -6q41 -4 52.5 -25.5t11.5 -50.5l-27 -397q0 -29 -27 -28h-149q-25 0 -27 28l-10 291h-725 q-4 -72 -9 -145.5t-9 -145.5q-2 -29 -29 -28h-146q-25 0 -24 26zM391 188h463v684h-326l-39 -309q-12 -92 -23 -153.5t-22.5 -103.5t-24.5 -68.5t-28 -49.5z" />
<glyph unicode="&#x435;" horiz-adv-x="1130" d="M92 532q0 135 37 241t101.5 178.5t155 110.5t196.5 38q236 0 349 -121t113 -332q0 -53 -12 -88t-34.5 -55.5t-52.5 -28.5t-64 -8h-545q2 -80 24.5 -134t61.5 -88t90 -48.5t111 -14.5q66 0 129 16.5t110 39.5q33 14 45 -13l56 -116q14 -33 -15 -48q-78 -47 -170 -65.5 t-176 -18.5q-248 0 -379 133.5t-131 421.5zM344 639h471q0 55 -10 102t-36 83t-69.5 56.5t-113.5 20.5q-55 0 -98.5 -21.5t-74 -58.5t-49 -84t-20.5 -98z" />
<glyph unicode="&#x436;" horiz-adv-x="1607" d="M51 13.5q-2 13.5 0 23.5l105 354q10 33 21 61.5t29.5 53t46.5 43t71 31.5l-2 4q-57 25 -89 75t-49 113l-75 268q-2 10 1 22.5t23 12.5h168q10 0 19.5 -4t15.5 -22l74 -240q29 -90 78 -116.5t108 -26.5h90v376q0 23 8 28t29 5h164q18 0 27.5 -5t9.5 -28v-376h88 q57 0 107 26.5t79 116.5l74 240q6 18 15 22t20 4h168q20 0 23 -12t1 -23l-76 -268q-16 -63 -48 -113.5t-89 -74.5l-2 -4q43 -12 70.5 -31t46 -43.5t30 -53t21.5 -61.5l104 -354q2 -10 0 -23.5t-26 -13.5h-176q-8 0 -19.5 4t-15.5 21l-98 327q-20 70 -72.5 100.5t-116.5 30.5 h-108v-450q0 -23 -9.5 -28t-27.5 -5h-164q-20 0 -28.5 5t-8.5 28v450h-111q-63 0 -115 -30.5t-73 -100.5l-98 -327q-4 -16 -15.5 -20.5t-19.5 -4.5h-176q-25 0 -27 13.5z" />
<glyph unicode="&#x437;" horiz-adv-x="1007" d="M44.5 74.5q-3.5 11.5 2.5 27.5l49 113q6 14 15.5 19.5t33.5 -5.5q57 -23 139.5 -40t153.5 -17q70 0 118 13.5t79 37t44 53t13 62.5q0 66 -61.5 104.5t-212.5 40.5q-37 0 -56.5 12.5t-19.5 47.5v47q0 57 76 61q117 6 176 35t59 94q1 117 -202 117q-57 0 -129 -15.5 t-129 -35.5q-23 -10 -32 -6t-16 18l-41 107q-10 23 -8 33t21 18q76 39 171 60.5t204 21.5q180 0 290.5 -72t110.5 -213q0 -78 -43 -139.5t-113 -98.5v-8q86 -27 138.5 -90t52.5 -153q0 -78 -33 -141.5t-93.5 -108.5t-144.5 -69.5t-188 -24.5q-51 0 -105.5 4t-107.5 13 t-102.5 22.5t-87.5 33.5q-18 10 -21.5 21.5z" />
<glyph unicode="&#x438;" horiz-adv-x="1222" d="M133 98v944q0 23 8.5 28t28.5 5h162q23 0 31 -5t8 -28v-704h8l127 205q12 18 26.5 42.5t45 73t82 130t137.5 219.5q27 39 47 53t69 14h74q47 0 75 -22.5t28 -75.5v-944q0 -23 -8.5 -28t-28.5 -5h-164q-20 0 -28.5 5t-8.5 28v692h-12l-123 -197l-297 -460 q-27 -41 -50.5 -54.5t-66.5 -13.5h-70q-100 0 -100 98z" />
<glyph unicode="&#x439;" horiz-adv-x="1222" d="M133 98v944q0 23 8.5 28t28.5 5h162q23 0 31 -5t8 -28v-704h8l127 205q12 18 26.5 42.5t45 73t82 130t137.5 219.5q27 39 47 53t69 14h74q47 0 75 -22.5t28 -75.5v-944q0 -23 -8.5 -28t-28.5 -5h-164q-20 0 -28.5 5t-8.5 28v692h-12l-123 -197l-297 -460 q-27 -41 -50.5 -54.5t-66.5 -13.5h-70q-100 0 -100 98zM241 1425.5q-3 10.5 13 26.5l57 53q18 16 25.5 11t23.5 -17q63 -66 128 -102.5t124 -36.5q25 0 49.5 6t53 22.5t65.5 45t86 71.5q18 16 26.5 14.5t18.5 -10.5l58 -49q20 -16 17 -26.5t-9 -18.5q-94 -121 -188.5 -177 t-186.5 -56q-55 0 -106.5 18.5t-95.5 50t-82.5 72.5t-69.5 86q-4 6 -7 16.5z" />
<glyph unicode="&#x43a;" horiz-adv-x="1099" d="M131 33v1009q0 23 9.5 28t27.5 5h164q20 0 28.5 -5t8.5 -28v-374h129q57 0 106 25.5t78 115.5l76 240q4 18 14 22t21 4h168q20 0 23 -12t1 -23l-76 -268q-16 -63 -49 -113.5t-90 -74.5l-2 -4q43 -12 70.5 -31t46 -43.5t31 -53t22.5 -61.5l104 -354q2 -10 0 -23.5 t-26 -13.5h-176q-8 0 -19.5 4t-15.5 21l-98 327q-23 70 -74 99.5t-115 29.5h-149v-448q0 -23 -8.5 -28t-28.5 -5h-164q-18 0 -27.5 5t-9.5 28z" />
<glyph unicode="&#x43b;" horiz-adv-x="1175" d="M17.5 132q5.5 9 29.5 22q51 23 85 53.5t56.5 91.5t37 166.5t26.5 279.5l16 216q4 63 35 88.5t86 25.5h539q68 0 91 -28.5t23 -88.5v-921q0 -23 -10 -30t-35 -7h-149q-23 0 -34 7t-11 30v837h-322l-8 -129q-12 -195 -30.5 -329.5t-55.5 -224t-100.5 -141.5t-167.5 -83 q-27 -8 -39 -5t-19 24l-41 112q-8 25 -2.5 34z" />
<glyph unicode="&#x43c;" horiz-adv-x="1484" d="M133 35v942q0 41 24.5 69.5t80.5 28.5h94q41 0 65.5 -12t46.5 -59l179 -373l114 -254h8l129 278l166 344q23 45 47.5 60.5t71.5 15.5h88q55 0 80 -27.5t25 -68.5v-944q0 -23 -9.5 -29t-31.5 -6h-150q-23 0 -32 6t-9 29v663h-10l-98 -223l-133 -280q-18 -39 -39 -53.5 t-64 -14.5h-69q-43 0 -63.5 14.5t-39.5 53.5l-127 266l-102 221h-10v-647q0 -23 -8.5 -29t-30.5 -6h-152q-20 0 -30.5 6t-10.5 29z" />
<glyph unicode="&#x43d;" horiz-adv-x="1193" d="M133 41v995q0 23 11.5 31t33.5 8h150q25 0 35 -7t10 -32v-364h450v364q0 23 11.5 31t33.5 8h150q27 0 35 -7t8 -32v-995q0 -27 -8.5 -34t-34.5 -7h-150q-23 0 -34 8t-11 33v436h-450v-436q0 -27 -10.5 -34t-34.5 -7h-150q-23 0 -34 8t-11 33z" />
<glyph unicode="&#x43e;" horiz-adv-x="1177" d="M92 537q0 135 37 239.5t102.5 176t156.5 109.5t202 38q244 0 369.5 -148.5t125.5 -408.5q0 -272 -125.5 -419t-375.5 -147q-248 0 -370 142.5t-122 417.5zM334 543q0 -170 55 -267.5t197 -97.5q72 0 121 30t78.5 79t43 113.5t13.5 136.5q0 74 -11.5 139t-39 115.5 t-75.5 79t-122 28.5q-66 0 -115 -27.5t-81.5 -74.5t-48 -113t-15.5 -141z" />
<glyph unicode="&#x43f;" horiz-adv-x="1212" d="M133 35v942q0 35 20.5 66.5t79.5 31.5h744q59 0 80.5 -31.5t21.5 -66.5v-942q0 -23 -9 -29t-32 -6h-159q-20 0 -29.5 6t-9.5 29v839h-469v-839q0 -23 -8.5 -29t-30.5 -6h-160q-20 0 -29.5 6t-9.5 29z" />
<glyph unicode="&#x440;" horiz-adv-x="1187" d="M133 -381v1352q0 18 6 28.5t27 20.5q102 45 216 61.5t216 16.5q133 0 227.5 -43t154.5 -119t88 -178.5t28 -218.5q0 -115 -30 -216.5t-89 -178t-149.5 -120.5t-211.5 -44q-55 0 -113.5 6t-129.5 22v-389q0 -23 -8.5 -29t-30.5 -6h-162q-20 0 -29.5 6.5t-9.5 28.5z M373 213q63 -16 111 -22.5t89 -6.5q59 0 109.5 18.5t87.5 60.5t57.5 110t20.5 168q0 98 -19.5 164.5t-56.5 108.5t-90 60.5t-119 18.5q-41 0 -97 -8t-93 -21v-651z" />
<glyph unicode="&#x441;" horiz-adv-x="1009" d="M92 530q0 129 35 234.5t99.5 180.5t155.5 115t206 40q84 0 162.5 -17.5t148.5 -54.5q18 -10 22.5 -20.5t-6.5 -30.5l-51 -121q-8 -16 -17 -20.5t-34 6.5q-49 18 -102.5 31.5t-112.5 13.5q-70 0 -120 -30t-81.5 -79t-46 -113.5t-14.5 -134.5q0 -72 12 -134t42 -109t81 -74 t131 -27q66 0 131.5 16.5t108.5 37.5q23 10 32 6t15 -21l51 -119q20 -33 -12 -51q-84 -47 -181.5 -62.5t-181.5 -15.5q-229 0 -351 139.5t-122 413.5z" />
<glyph unicode="&#x442;" horiz-adv-x="970" d="M20 918v112q0 23 7.5 34t33.5 11h848q27 0 34 -11t7 -34v-112q0 -20 -8 -30.5t-33 -10.5h-311v-836q0 -27 -9 -34t-34 -7h-147q-25 0 -35.5 8t-10.5 33v836h-301q-25 0 -33 10t-8 31z" />
<glyph unicode="&#x443;" horiz-adv-x="1069" d="M23 1047q-8 29 22 28h188q23 0 31 -5t12 -21l140 -471l106 -371h13l114 375l152 465q4 16 11 22t30 6h186q31 0 21 -26l-410 -1225v2q-47 -141 -130 -199.5t-212 -58.5q-33 0 -81 4t-99 20q-23 4 -28 12.5t-1 26.5l29 125q4 20 13 23.5t28 -0.5q35 -8 54 -11.5t46 -3.5 q72 0 114 28t66 102l43 129h-49q-37 0 -60.5 12t-41.5 71z" />
<glyph unicode="&#x444;" horiz-adv-x="1501" d="M92 541q0 129 42 230t115 172t171 107.5t211 41.5v370q0 23 9 29t30 6h161q23 0 31 -6t8 -29v-372q117 -4 215.5 -41t170 -107t112.5 -171t41 -230q0 -119 -35 -218.5t-102.5 -173t-167.5 -118.5t-234 -54v-356q0 -23 -8 -29t-31 -6h-161q-20 0 -29.5 6.5t-9.5 28.5v356 q-133 8 -233.5 52.5t-168 118t-102.5 174t-35 219.5zM322 532q0 -70 19 -133t58 -112t96.5 -82t135.5 -39v725q-152 -10 -230.5 -104.5t-78.5 -254.5zM870 166q82 8 141.5 41t96.5 82t54.5 111t17.5 132q0 160 -78 253.5t-232 103.5v-723z" />
<glyph unicode="&#x445;" horiz-adv-x="1019" d="M25 39l350 528l-309 473q-6 10 -4.5 22.5t20.5 12.5h190q25 0 37.5 -7t22.5 -24l180 -313l186 313q10 16 22.5 23.5t35.5 7.5h184q23 0 24 -11t-3 -20l-318 -469l354 -538q8 -12 6 -24.5t-24 -12.5h-195q-29 0 -40 9t-21 26l-217 366l-221 -366q-10 -16 -23.5 -25.5 t-38.5 -9.5h-182q-39 0 -16 39z" />
<glyph unicode="&#x446;" horiz-adv-x="1259" d="M133 123v913q0 23 10.5 31t32.5 8h152q29 0 36 -7t7 -32v-843h452v843q0 23 11.5 31t33.5 8h152q23 0 33 -7t10 -32v-841l74 -7q45 -4 55 -27.5t8 -47.5l-22 -404q-2 -29 -29 -28h-148q-25 0 -26 28l-12 291h-719q-57 0 -84 31.5t-27 91.5z" />
<glyph unicode="&#x447;" horiz-adv-x="1120" d="M76 797v245q0 20 9 26.5t28 6.5h166q23 0 29.5 -5t6.5 -28v-237q0 -72 13.5 -116t41 -68.5t70.5 -32.5t103 -8q45 0 103.5 8t103.5 24v430q0 20 8 26.5t28 6.5h164q20 0 28.5 -5t8.5 -28v-1009q0 -23 -8 -28t-29 -5h-164q-20 0 -28 6t-8 27v383q-51 -16 -121 -26.5 t-125 -10.5q-227 0 -327.5 104.5t-100.5 313.5z" />
<glyph unicode="&#x448;" horiz-adv-x="1763" d="M133 123v913q0 23 10.5 31t32.5 8h152q29 0 36 -7t7 -32v-843h395v843q0 23 10 31t33 8h149q25 0 35.5 -7t10.5 -32v-843h389v843q0 25 10 32t35 7h151q23 0 32 -8t9 -31v-913q0 -59 -26.5 -91t-85.5 -32h-1274q-57 0 -84 31.5t-27 91.5z" />
<glyph unicode="&#x449;" horiz-adv-x="1826" d="M133 123v913q0 23 10.5 31t32.5 8h152q29 0 36 -7t7 -32v-843h395v843q0 23 10 31t33 8h149q25 0 35.5 -7t10.5 -32v-843h389v843q0 23 11 31t34 8h149q23 0 33 -7t10 -32v-843l74 -9q45 -4 56.5 -27.5t8.5 -45.5l-24 -402q-2 -29 -27 -28h-149q-25 0 -27 28l-12 291 h-1286q-57 0 -84 31.5t-27 91.5z" />
<glyph unicode="&#x44a;" horiz-adv-x="1400" d="M20 918v118q0 23 6.5 31t28.5 8h473q45 0 72 -21.5t27 -74.5l-2 -258h295q133 0 213.5 -41t123.5 -98.5t56.5 -119t13.5 -102.5q0 -78 -29.5 -143t-81 -113.5t-120 -76t-146.5 -27.5h-448q-70 0 -92.5 36t-22.5 83v758h-332q-23 0 -29 9t-6 32zM625 190h282q55 0 91 17.5 t55.5 44.5t26.5 56t7 54q0 68 -45 119t-133 51h-284v-342z" />
<glyph unicode="&#x44b;" horiz-adv-x="1560" d="M133 119v917q0 23 10.5 31t32.5 8h152q25 0 34 -7t9 -32v-315h295q133 0 214 -41t124 -98.5t56 -119t13 -102.5q0 -78 -29.5 -143t-81 -113.5t-120 -76t-146.5 -27.5h-448q-70 0 -92.5 36t-22.5 83zM371 190h282q55 0 91 17.5t55.5 44.5t27 56t7.5 54q0 68 -44.5 119 t-134.5 51h-284v-342zM1192 41v995q0 23 10 31t33 8h149q23 0 33 -7t10 -32v-995q0 -27 -10 -34t-33 -7h-149q-23 0 -33 8t-10 33z" />
<glyph unicode="&#x44c;" horiz-adv-x="1146" d="M133 119v917q0 23 10.5 31t32.5 8h150q27 0 36 -7t9 -32v-315h295q133 0 214 -41t124 -98.5t56 -119t13 -102.5q0 -78 -29.5 -143t-81 -113.5t-120 -76t-146.5 -27.5h-448q-70 0 -92.5 36t-22.5 83zM371 190h282q55 0 91 17.5t55.5 44.5t27 56t7.5 54q0 68 -44.5 119 t-134.5 51h-284v-342z" />
<glyph unicode="&#x44d;" horiz-adv-x="1001" d="M50.5 72.5q-3.5 11.5 4.5 29.5l54 123q6 16 15 20.5t32 -5.5q45 -18 109 -36t130 -18q137 0 202 77t71 210h-353q-6 0 -14 5t-8 22v131q0 10 3 17t19 7h344q-10 111 -68.5 171.5t-170.5 60.5q-59 0 -118.5 -13.5t-108.5 -31.5q-25 -10 -34 -6t-18 20l-43 121q-8 23 -6 32 t23 19q70 35 154.5 53.5t168.5 18.5q229 0 352 -137.5t123 -399.5q0 -289 -124.5 -437.5t-366.5 -148.5q-84 0 -178 14.5t-172 59.5q-18 10 -21.5 21.5z" />
<glyph unicode="&#x44e;" horiz-adv-x="1593" d="M133 41v995q0 23 11.5 31t31.5 8h150q29 0 37 -7t8 -32v-374h174q29 205 155.5 321.5t321.5 116.5q238 0 358.5 -149.5t120.5 -407.5q0 -262 -122 -414t-361 -152q-229 0 -347 128t-132 364h-168v-428q0 -27 -8.5 -34t-36.5 -7h-150q-20 0 -31.5 8t-11.5 33zM778 543 q0 -84 12.5 -151.5t40 -115t74.5 -73t115 -25.5q63 0 109.5 29t74 77t40.5 113.5t13 139.5q0 76 -12 142t-38.5 115.5t-71.5 77t-109 27.5q-117 0 -182.5 -97t-65.5 -259z" />
<glyph unicode="&#x44f;" horiz-adv-x="1157" d="M55 23q0 10 2 14l93 285q16 53 47.5 96t103.5 63v2q-102 35 -143 107t-41 164q0 68 24.5 127t72.5 102t115.5 67.5t153.5 24.5h439q41 0 69.5 -21.5t30.5 -64.5v-958q0 -18 -9 -24.5t-30 -6.5h-158q-23 0 -31 6t-8 27v389h-208q-78 0 -126.5 -24.5t-72.5 -106.5l-78 -256 q-6 -23 -20.5 -29t-30.5 -6h-164q-18 0 -24.5 6t-6.5 17zM352 741q0 -59 38 -101t136 -42h260v285h-270q-49 0 -81 -14.5t-50 -35t-25.5 -46.5t-7.5 -46z" />
<glyph unicode="&#x451;" horiz-adv-x="1130" d="M92 532q0 135 37 241t101.5 178.5t155 110.5t196.5 38q236 0 349 -121t113 -332q0 -53 -12 -88t-34.5 -55.5t-52.5 -28.5t-64 -8h-545q2 -80 24.5 -134t61.5 -88t90 -48.5t111 -14.5q66 0 129 16.5t110 39.5q33 14 45 -13l56 -116q14 -33 -15 -48q-78 -47 -170 -65.5 t-176 -18.5q-248 0 -379 133.5t-131 421.5zM252 1378q0 53 40 93t93 40t94 -40t41 -93q0 -51 -41 -91t-94 -40t-93 40t-40 91zM344 639h471q0 55 -10 102t-36 83t-69.5 56.5t-113.5 20.5q-55 0 -98.5 -21.5t-74 -58.5t-49 -84t-20.5 -98zM645 1378q0 27 11.5 50.5t30 42 t43 29.5t50.5 11q53 0 93 -40t40 -93q0 -51 -39.5 -91t-93.5 -40q-27 0 -51 11.5t-42.5 30t-30 42t-11.5 47.5z" />
<glyph unicode="&#x452;" horiz-adv-x="1177" d="M41 1229v67q0 16 5 22.5t22 6.5h82v137q0 23 9 29t29 6h160q23 0 31 -6t8 -29v-137h381q16 0 20.5 -7t4.5 -24v-63q0 -18 -4.5 -24.5t-20.5 -6.5h-381v-201q61 20 128 28.5t124 8.5q123 0 211 -42t143.5 -113.5t82 -167t26.5 -203.5q0 -98 -23.5 -191.5t-67.5 -176.5 t-107.5 -151.5t-143.5 -115.5q-16 -10 -27.5 -8t-25.5 18l-78 101q-16 23 12 41q98 82 157.5 195.5t59.5 266.5q0 162 -61.5 252t-206.5 90q-41 0 -94.5 -7t-108.5 -25v-764q0 -23 -8 -29t-31 -6h-158q-23 0 -31.5 6t-8.5 29v1165h-82q-16 0 -21.5 6t-5.5 23z" />
<glyph unicode="&#x453;" horiz-adv-x="968" d="M133 41v702q0 66 13.5 125.5t50 105.5t101 73.5t167.5 27.5h444q27 0 33 -11t6 -34v-110q0 -23 -7 -33t-32 -10h-407q-72 0 -101.5 -30t-29.5 -95v-711q0 -27 -8.5 -34t-36.5 -7h-148q-23 0 -34 8t-11 33zM405.5 1256.5q-2.5 9.5 4.5 25.5l139 336q14 33 51 22l172 -47 q16 -4 19.5 -14t-5.5 -20l-231 -328q-12 -18 -21.5 -20.5t-25.5 1.5l-84 29q-16 6 -18.5 15.5z" />
<glyph unicode="&#x454;" horiz-adv-x="1009" d="M92 530q0 129 35 233.5t99.5 178.5t155.5 115t206 43q170 4 311 -72q18 -10 22.5 -20.5t-6.5 -30.5l-51 -121q-8 -16 -17 -20.5t-34 6.5q-49 18 -102.5 31.5t-112.5 13.5q-111 -4 -173.5 -71.5t-78.5 -170.5h344q16 0 19.5 -7t3.5 -17v-132q0 -16 -8.5 -21t-14.5 -5h-350 q4 -59 19.5 -109.5t46 -87.5t78.5 -58.5t118 -21.5q66 0 131.5 16.5t108.5 37.5q23 10 32 6t15 -21l51 -119q20 -33 -12 -51q-84 -47 -181.5 -62.5t-181.5 -15.5q-229 0 -351 139.5t-122 413.5z" />
<glyph unicode="&#x455;" horiz-adv-x="987" d="M76 117l49 114q10 18 20.5 23.5t32.5 -4.5q74 -35 164 -54.5t160 -19.5q86 0 129 34t43 87q0 59 -55.5 94t-165.5 76q-84 31 -146.5 61.5t-103.5 68.5t-62.5 85t-21.5 109q0 68 24.5 124t72.5 97t120 64.5t166 23.5q86 0 172 -15.5t166 -48.5q16 -8 19 -20t-1 -29 l-47 -117q-6 -16 -15.5 -18t-25.5 4q-80 29 -140.5 39t-129.5 10q-76 0 -111 -31.5t-35 -70.5q0 -29 11.5 -49.5t36 -38t64.5 -35.5t97 -39q66 -25 128.5 -52.5t110.5 -66.5t77.5 -92t29.5 -129q0 -82 -30.5 -143.5t-85 -101.5t-128 -59.5t-159.5 -19.5q-49 0 -104.5 5.5 t-110.5 15.5t-106.5 27.5t-94.5 42.5q-31 16 -14 49z" />
<glyph unicode="&#x456;" horiz-adv-x="585" d="M147 1356q0 61 43 104t105 43q61 0 104 -43t43 -104t-43 -104.5t-104 -43.5t-104.5 43t-43.5 105zM174 35v1005q0 23 9.5 29t29.5 6h158q23 0 32 -6t9 -29v-1005q0 -23 -9.5 -29t-31.5 -6h-158q-20 0 -29.5 6t-9.5 29z" />
<glyph unicode="&#x457;" horiz-adv-x="591" d="M-31 1372q0 53 40 93t93 40t94.5 -40t41.5 -93q0 -51 -41 -91t-95 -40q-53 0 -93 40t-40 91zM178 35v1005q0 23 9.5 29t29.5 6h160q23 0 31 -6t8 -29v-1005q0 -23 -8.5 -29t-30.5 -6h-160q-20 0 -29.5 6t-9.5 29zM362 1372q0 27 11.5 50.5t30 42t43 29.5t51.5 11 q53 0 93 -40t40 -93q0 -51 -40 -91t-93 -40q-27 0 -51.5 11.5t-43 29.5t-30 42t-11.5 48z" />
<glyph unicode="&#x458;" horiz-adv-x="610" d="M-42 -263.5q7 7.5 24 17.5q68 31 108.5 71t63 88t29.5 102.5t7 115.5v909q0 23 9.5 29t29.5 6h162q23 0 31 -6t8 -29v-882q0 -147 -28.5 -251t-79 -174.5t-119 -113.5t-146.5 -70q-39 -10 -47 17l-51 143q-8 20 -1 27.5zM164 1356q0 61 44 104t103 43q61 0 104.5 -43 t43.5 -104t-43 -104.5t-105 -43.5q-59 0 -103 43t-44 105z" />
<glyph unicode="&#x459;" horiz-adv-x="1728" d="M17.5 132q5.5 9 29.5 22q51 23 85 53.5t56.5 91.5t37 166.5t26.5 279.5l16 216q4 63 35 88.5t86 25.5h463q59 0 80.5 -28.5t21.5 -69.5v-260h293q135 0 216 -41t124 -97.5t55.5 -118t12.5 -102.5q0 -78 -29 -143t-79 -112.5t-118.5 -75t-148.5 -27.5h-451q-70 0 -92 36 t-22 83v755h-234l-8 -129q-12 -195 -30.5 -329.5t-55.5 -224t-100.5 -141.5t-167.5 -83q-27 -8 -39 -5t-19 24l-41 112q-8 25 -2.5 34zM952 190h285q55 0 90 16.5t54.5 42t26.5 55t7 56.5q0 72 -45 120t-133 48h-285v-338z" />
<glyph unicode="&#x45a;" horiz-adv-x="1753" d="M133 41v995q0 23 11.5 31t33.5 8h150q25 0 35 -7t10 -32v-358h385v358q0 23 10 31t33 8h151q25 0 34 -7t9 -32v-356h289q127 0 205 -37t120 -89t55 -109.5t13 -98.5q0 -78 -27.5 -141.5t-75.5 -108.5t-114.5 -70.5t-144.5 -25.5h-443q-70 0 -92 36t-22 83v368h-385v-446 q0 -27 -10.5 -34t-34.5 -7h-150q-23 0 -34 8t-11 33zM995 190h277q51 0 84 15.5t51 39t24.5 50t6.5 51.5q0 70 -42 109t-122 39h-279v-304z" />
<glyph unicode="&#x45b;" horiz-adv-x="1196" d="M25 1233v67q0 16 4 22.5t20 6.5h84v133q0 23 9.5 29t29.5 6h160q23 0 31 -6t8 -29v-133h391q16 0 20 -7t4 -24v-63q0 -18 -4 -24.5t-20 -6.5h-391v-209q59 20 129.5 29.5t126.5 9.5q227 0 332.5 -126t105.5 -351v-522q0 -23 -9 -29t-32 -6h-162q-20 0 -29.5 6t-9.5 29 v508q0 139 -55 211.5t-184 72.5q-53 0 -111.5 -8t-101.5 -24v-760q0 -23 -8.5 -29t-30.5 -6h-160q-20 0 -29.5 6t-9.5 29v1169h-84q-16 0 -20 6.5t-4 22.5z" />
<glyph unicode="&#x45c;" horiz-adv-x="1099" d="M131 33v1009q0 23 9.5 28t27.5 5h164q20 0 28.5 -5t8.5 -28v-374h129q57 0 106 25.5t78 115.5l76 240q4 18 14 22t21 4h168q20 0 23 -12t1 -23l-76 -268q-16 -63 -49 -113.5t-90 -74.5l-2 -4q43 -12 70.5 -31t46 -43.5t31 -53t22.5 -61.5l104 -354q2 -10 0 -23.5 t-26 -13.5h-176q-8 0 -19.5 4t-15.5 21l-98 327q-23 70 -74 99.5t-115 29.5h-149v-448q0 -23 -8.5 -28t-28.5 -5h-164q-18 0 -27.5 5t-9.5 28zM430.5 1225.5q-2.5 9.5 3.5 25.5l139 336q14 33 52 23l172 -47q16 -4 19 -14.5t-5 -20.5l-231 -328q-12 -18 -21.5 -20t-26.5 2 l-83 28q-16 6 -18.5 15.5z" />
<glyph unicode="&#x45e;" horiz-adv-x="1069" d="M23 1047q-8 29 22 28h188q23 0 31 -5t12 -21l140 -471l106 -371h13l114 375l152 465q4 16 11 22t30 6h186q31 0 21 -26l-410 -1225v2q-47 -141 -130 -199.5t-212 -58.5q-33 0 -81 4t-99 20q-23 4 -28 12.5t-1 26.5l29 125q4 20 13 23.5t28 -0.5q35 -8 54 -11.5t46 -3.5 q72 0 114 28t66 102l43 129h-49q-37 0 -60.5 12t-41.5 71zM191.5 1429.5q-3.5 10.5 13.5 26.5l57 53q18 16 25.5 11.5t23.5 -17.5q63 -66 128 -102.5t124 -36.5q25 0 49.5 6t53 22.5t65.5 45t86 71.5q18 16 26.5 14.5t18.5 -10.5l58 -49q20 -16 17 -26.5t-9 -18.5 q-94 -121 -188.5 -177t-186.5 -56q-55 0 -106.5 18.5t-95.5 50t-83 72.5t-69 86q-4 6 -7.5 16.5z" />
<glyph unicode="&#x45f;" horiz-adv-x="1222" d="M133 123v913q0 23 10.5 31t32.5 8h152q29 0 36 -7t7 -32v-843h481v843q0 25 9 32t34 7h152q23 0 33 -8t10 -31v-913q0 -59 -27 -91t-86 -32h-244l-16 -299q0 -33 -29 -33h-151q-29 0 -29 35l-16 297h-248q-57 0 -84 31.5t-27 91.5z" />
<glyph unicode="&#x490;" horiz-adv-x="1161" d="M154 43v1024q0 72 17 138.5t60 117.5t113 82t174 31l381 2v235q0 23 8 29t29 6h147q23 0 31 -6t8 -29v-325q0 -61 -31.5 -97.5t-105.5 -36.5h-440q-78 0 -110 -33.5t-32 -99.5v-1038q0 -29 -9 -36t-38 -7h-155q-23 0 -35 8t-12 35z" />
<glyph unicode="&#x491;" horiz-adv-x="997" d="M133 41v702q0 66 15.5 125.5t53.5 105.5t101.5 73.5t161.5 27.5l301 2v232q0 20 8 26t27 6h139q20 0 28.5 -6t8.5 -26v-308q0 -59 -29.5 -91.5t-101.5 -32.5h-344q-72 0 -101.5 -30t-29.5 -95v-711q0 -27 -8.5 -34t-36.5 -7h-148q-23 0 -34 8t-11 33z" />
<glyph unicode="&#x4d9;" horiz-adv-x="1130" d="M92 432q0 53 12.5 88t34 55.5t52 28.5t65.5 8h543q-2 80 -24.5 134.5t-61.5 88t-90.5 48t-108.5 14.5q-66 0 -129 -16.5t-111 -38.5q-20 -8 -29 -6t-18 18l-53 117q-14 33 12 47q78 47 171.5 65.5t177.5 18.5q246 0 377.5 -133t131.5 -422q0 -135 -36.5 -240.5 t-101 -178.5t-156 -110.5t-197.5 -37.5q-233 0 -347 121.5t-114 330.5zM319 440q0 -55 10.5 -102t37 -83t70.5 -56.5t112 -20.5q55 0 98 21.5t75 58.5t49 84t22 98h-474z" />
<glyph unicode="&#x2000;" horiz-adv-x="946" />
<glyph unicode="&#x2001;" horiz-adv-x="1893" />
<glyph unicode="&#x2002;" horiz-adv-x="946" />
<glyph unicode="&#x2003;" horiz-adv-x="1893" />
<glyph unicode="&#x2004;" horiz-adv-x="631" />
<glyph unicode="&#x2005;" horiz-adv-x="473" />
<glyph unicode="&#x2006;" horiz-adv-x="315" />
<glyph unicode="&#x2007;" horiz-adv-x="315" />
<glyph unicode="&#x2008;" horiz-adv-x="236" />
<glyph unicode="&#x2009;" horiz-adv-x="378" />
<glyph unicode="&#x200a;" horiz-adv-x="105" />
<glyph unicode="&#x2010;" horiz-adv-x="768" d="M102 512v168q0 23 6.5 31t28.5 8h494q23 0 29 -8.5t6 -30.5v-168q0 -20 -6.5 -29.5t-28.5 -9.5h-494q-23 0 -29 9.5t-6 29.5z" />
<glyph unicode="&#x2011;" horiz-adv-x="768" d="M102 512v168q0 23 6.5 31t28.5 8h494q23 0 29 -8.5t6 -30.5v-168q0 -20 -6.5 -29.5t-28.5 -9.5h-494q-23 0 -29 9.5t-6 29.5z" />
<glyph unicode="&#x2012;" horiz-adv-x="768" d="M102 512v168q0 23 6.5 31t28.5 8h494q23 0 29 -8.5t6 -30.5v-168q0 -20 -6.5 -29.5t-28.5 -9.5h-494q-23 0 -29 9.5t-6 29.5z" />
<glyph unicode="&#x2013;" horiz-adv-x="1024" d="M45 553v117q0 20 7 29.5t30 9.5h860q23 0 29 -9.5t6 -29.5v-117q0 -23 -6 -31t-29 -8h-860q-23 0 -30 8t-7 31z" />
<glyph unicode="&#x2014;" horiz-adv-x="2048" d="M41 553v117q0 20 7 29.5t30 9.5h1892q23 0 30 -9.5t7 -29.5v-117q0 -23 -7 -31t-30 -8h-1892q-23 0 -30 8t-7 31z" />
<glyph unicode="&#x2018;" horiz-adv-x="647" d="M121 944l149 490q6 23 13.5 31t29.5 8h86q43 0 43 -35l-30 -494q-2 -16 -10.5 -28.5t-30.5 -12.5h-211q-29 0 -37 12.5t-2 28.5z" />
<glyph unicode="&#x2019;" horiz-adv-x="647" d="M168 936l31 496q2 16 9 28.5t30 12.5h213q27 0 35 -13.5t3 -27.5l-149 -490q-6 -23 -14.5 -31t-30.5 -8h-84q-45 0 -43 33z" />
<glyph unicode="&#x201a;" horiz-adv-x="538" d="M125 -227l29 503q2 16 10 28.5t31 12.5h213q27 0 35 -13t3 -28l-149 -499q-6 -23 -13.5 -31t-29.5 -8h-86q-45 0 -43 35z" />
<glyph unicode="&#x201c;" horiz-adv-x="970" d="M121 944l149 490q6 23 13.5 31t29.5 8h86q43 0 43 -35l-30 -494q-2 -16 -10.5 -28.5t-30.5 -12.5h-211q-29 0 -37 12.5t-2 28.5zM528 944l150 490q6 23 14 31t31 8h84q47 0 43 -35l-31 -494q-2 -16 -9 -28.5t-30 -12.5h-213q-27 0 -35 12.5t-4 28.5z" />
<glyph unicode="&#x201d;" horiz-adv-x="970" d="M121 936l31 496q2 16 9 28.5t29 12.5h213q27 0 35 -13.5t4 -27.5l-149 -490q-6 -23 -14.5 -31t-30.5 -8h-84q-45 0 -43 33zM528 936l31 496q0 16 9.5 28.5t31.5 12.5h211q29 0 36 -13.5t3 -27.5l-150 -490q-6 -23 -13 -31t-30 -8h-86q-45 0 -43 33z" />
<glyph unicode="&#x201e;" horiz-adv-x="927" d="M125 -229l29 505q2 16 10 28.5t31 12.5h213q27 0 35 -12t3 -29l-149 -501q-6 -23 -13.5 -30t-29.5 -7h-86q-45 0 -43 33zM504 -229l28 505q2 16 10.5 28.5t30.5 12.5h211q29 0 36 -12t3 -29l-147 -501q-8 -23 -14.5 -30t-28.5 -7h-86q-45 0 -43 33z" />
<glyph unicode="&#x2022;" horiz-adv-x="880" d="M168 623q0 57 21.5 108t59.5 90t88 60.5t109 21.5t110.5 -21.5t89.5 -60.5t59.5 -90t21.5 -108q0 -59 -21.5 -109.5t-59.5 -88.5t-89 -59.5t-111 -21.5q-59 0 -109 21.5t-88 59.5t-59.5 88t-21.5 110z" />
<glyph unicode="&#x2026;" horiz-adv-x="1652" d="M115 145q0 72 50 122t122 50q74 0 124 -49t50 -123q0 -72 -50.5 -121t-123.5 -49q-72 0 -122 49.5t-50 120.5zM655 145q0 37 13.5 68t37 54.5t55.5 36.5t66 13q76 0 125 -49t49 -123q0 -72 -50 -121t-124 -49q-35 0 -66.5 13.5t-55 36t-37 53.5t-13.5 67zM1192 145 q0 72 50 122t124 50t123 -49t49 -123q0 -72 -49 -121t-123 -49t-124 49.5t-50 120.5z" />
<glyph unicode="&#x202f;" horiz-adv-x="378" />
<glyph unicode="&#x2039;" horiz-adv-x="704" d="M121 508q0 27 12 50.5t23 41.5l186 309q14 23 28.5 34t53.5 11h143q20 0 27.5 -13t-2.5 -32l-240 -405l250 -402q12 -23 4 -34t-31 -11h-145q-39 0 -54.5 11.5t-25.5 31.5l-198 322q-10 18 -20.5 43t-10.5 43z" />
<glyph unicode="&#x203a;" horiz-adv-x="704" d="M94 68.5q-8 11.5 4 33.5l250 402l-239 405q-10 18 -3 31.5t27 13.5h143q37 0 52.5 -11t29.5 -34l187 -309q10 -18 22.5 -41.5t12.5 -50.5q0 -18 -11.5 -43t-21.5 -43l-197 -322q-10 -20 -26.5 -31.5t-53.5 -11.5h-145q-23 0 -31 11.5z" />
<glyph unicode="&#x205f;" horiz-adv-x="473" />
<glyph unicode="&#x20ac;" d="M76 532v72q0 18 5 27.5t28 9.5h849q23 0 27 -9t4 -28v-72q0 -20 -4 -28t-27 -8h-505q20 -145 106 -222t254 -77q78 0 149.5 20.5t137.5 46.5q25 10 35 4t16 -20l53 -119q12 -25 7 -36t-19 -21q-92 -57 -201.5 -76t-212.5 -19q-248 0 -395 126t-178 393h-96q-23 0 -28 8 t-5 28zM76 782v72q0 18 5 27.5t28 9.5h104q18 117 69.5 211t128 159.5t174 101.5t208.5 36q86 0 175 -16.5t181 -63.5q16 -8 20.5 -20.5t-6.5 -34.5l-53 -123q-8 -16 -16.5 -20.5t-30.5 3.5q-61 25 -126 38.5t-134 13.5q-135 0 -221 -79t-115 -206h491q23 0 27 -9.5t4 -27.5 v-72q0 -20 -4 -28.5t-27 -8.5h-849q-23 0 -28 8.5t-5 28.5z" />
<glyph unicode="&#x2122;" horiz-adv-x="1714" d="M63 1329v80q0 27 27 27h594q16 0 20.5 -6.5t4.5 -20.5v-80q0 -27 -25 -26h-221v-650q0 -27 -29 -26h-104q-29 0 -29 26v650h-211q-27 0 -27 26zM778 651v713q0 33 16.5 52.5t57.5 19.5h55q35 0 55.5 -12.5t34.5 -47.5l123 -317q10 -31 29.5 -80t32.5 -80l6 2q6 14 14 37 t17.5 46.5t18.5 45t13 33.5l121 313q14 33 34.5 46.5t57.5 13.5h56q72 0 71 -72v-713q0 -16 -7 -19t-21 -3h-101q-16 0 -21 3t-5 19v523h-6l-46 -132l-102 -262q-12 -31 -25.5 -42t-44.5 -11h-55q-31 0 -43 11.5t-24 41.5l-99 248l-51 148h-6v-525q0 -16 -6 -19t-21 -3h-102 q-14 0 -20.5 3t-6.5 19z" />
<glyph unicode="&#xe000;" horiz-adv-x="1075" d="M0 0v1075h1075v-1075h-1075z" />
</font>
</defs>
</svg>
